<svg width="62" height="62" viewBox="0 0 62 62" fill="none" xmlns="http://www.w3.org/2000/svg">
<path d="M62 0H0V62H62V0Z" fill="#B92770"/>
<path d="M29.157 57V37.5928H31.294C31.294 37.6518 31.302 37.711 31.302 37.772C31.302 44.1193 31.302 50.4669 31.302 56.8149C31.302 56.8769 31.295 56.938 31.292 57H29.157ZM15.715 48.1108C11.6451 44.5758 8.98085 39.696 8.20805 34.3608H10.376C10.499 34.9298 10.606 35.4938 10.745 36.0518C11.5203 39.2095 13.05 42.1322 15.203 44.5688C17.8063 47.5689 21.2346 49.7373 25.061 50.8032C25.776 51.0032 26.514 51.1332 27.239 51.3032C27.285 51.3152 27.357 51.3668 27.357 51.4028C27.365 52.0928 27.357 52.7819 27.357 53.5029C23.0321 52.8839 18.984 51.0096 15.715 48.1108ZM33.108 51.3271C37.3602 50.6484 41.2858 48.6335 44.316 45.5742C47.3743 42.5384 49.388 38.6085 50.066 34.353H52.226C51.5256 39.1762 49.2863 43.6441 45.8415 47.0918C42.3967 50.5395 37.9306 52.7823 33.108 53.4868V51.3271ZM33.352 40.5962C33.352 40.5452 33.436 40.4732 33.495 40.4502C34.2405 40.1689 34.9482 39.796 35.602 39.3408C37.24 38.2156 38.4904 36.612 39.182 34.749C39.192 34.702 39.2194 34.6605 39.2587 34.6328C39.298 34.6052 39.3464 34.5935 39.394 34.6001C40.039 34.6071 40.685 34.6001 41.329 34.6001H41.483C40.934 36.5398 39.8976 38.3065 38.4726 39.7324C37.0476 41.1583 35.2814 42.1958 33.342 42.7461C33.345 42.0191 33.342 41.3081 33.352 40.6001V40.5962ZM18.972 34.6011H19.954C20.333 34.6011 20.712 34.6011 21.091 34.6011C21.1292 34.5954 21.1681 34.6046 21.1999 34.6265C21.2316 34.6484 21.2538 34.6815 21.262 34.7192C21.7021 35.9131 22.3733 37.0079 23.2373 37.9419C24.1013 38.8759 25.1411 39.6306 26.297 40.1621C26.525 40.2721 26.768 40.3521 26.997 40.4561C27.046 40.4791 27.112 40.5429 27.112 40.5889C27.119 41.2959 27.112 42.0039 27.112 42.7109C27.112 42.7209 27.102 42.7312 27.097 42.7412C25.161 42.1896 23.3981 41.1519 21.976 39.7271C20.5539 38.3022 19.5198 36.5382 18.972 34.6011ZM30.234 34.7241C29.3762 34.7212 28.5543 34.3789 27.948 33.772C27.3417 33.1651 27.0002 32.3427 26.998 31.4849C27.002 30.6273 27.345 29.8062 27.9522 29.2007C28.5594 28.5952 29.3815 28.2545 30.239 28.2529C30.6613 28.2551 31.0789 28.3414 31.4675 28.5063C31.8562 28.6713 32.2082 28.9117 32.5031 29.2139C32.7979 29.5161 33.0298 29.874 33.1851 30.2666C33.3405 30.6592 33.4163 31.0788 33.408 31.501C33.4132 31.9213 33.3351 32.3385 33.1782 32.7285C33.0213 33.1185 32.7888 33.4737 32.494 33.7734C32.1992 34.0731 31.848 34.3113 31.4607 34.4746C31.0733 34.6379 30.6574 34.7233 30.237 34.7251L30.234 34.7241ZM36.57 32.564H36.34V30.4141H55.747V32.5532C55.668 32.5532 55.59 32.5649 55.511 32.5649L36.57 32.564ZM4.74805 32.5562V30.4268H24.114V32.5562H4.74805ZM50.04 28.4658C49.5322 25.4115 48.3289 22.5151 46.523 20C44.8594 17.6593 42.72 15.6967 40.245 14.2402C38.2228 13.0398 36.0055 12.2036 33.694 11.77L33.117 11.6621V9.48682C37.2171 10.0663 41.0733 11.781 44.25 14.437C48.5964 17.9985 51.4542 23.0564 52.262 28.6172C52.182 28.6172 52.128 28.625 52.072 28.625C51.462 28.625 50.85 28.625 50.24 28.625H50.231C50.108 28.628 50.062 28.5938 50.04 28.4658ZM10.268 28.627C9.61205 28.627 8.95605 28.627 8.30005 28.627C8.27065 28.6231 8.24157 28.617 8.21305 28.6089C8.93946 23.6312 11.3107 19.0398 14.949 15.5659C18.3382 12.2873 22.6795 10.1678 27.349 9.51123V11.6611C27.049 11.7181 26.749 11.7759 26.449 11.8379C23.8469 12.3688 21.3759 13.4105 19.179 14.9028C16.1131 16.9594 13.6621 19.809 12.087 23.1479C11.2803 24.842 10.7164 26.6416 10.412 28.4932C10.396 28.5882 10.37 28.6309 10.272 28.6309L10.268 28.627ZM21.058 28.3809C20.413 28.3749 19.767 28.3809 19.123 28.3809H18.972C19.5234 26.4411 20.5613 24.6744 21.9873 23.2485C23.4134 21.8227 25.1802 20.785 27.12 20.2339V20.4209C27.12 21.0489 27.12 21.6772 27.12 22.3062C27.1285 22.3599 27.1163 22.4149 27.0859 22.46C27.0555 22.5051 27.0091 22.5366 26.956 22.5488C25.6558 23.0319 24.475 23.7898 23.4941 24.7705C22.5132 25.7512 21.7553 26.9318 21.272 28.2319C21.2612 28.2785 21.2341 28.3194 21.1955 28.3477C21.157 28.3759 21.1097 28.3899 21.062 28.3862L21.058 28.3809ZM39.196 28.248C38.711 26.9306 37.9441 25.7352 36.9488 24.7451C35.9535 23.755 34.754 22.9942 33.434 22.5161C33.408 22.5061 33.382 22.491 33.352 22.478V20.2412C35.2909 20.7894 37.0571 21.8248 38.4823 23.249C39.9076 24.6732 40.9444 26.4385 41.494 28.377H40.786C40.322 28.377 39.858 28.377 39.394 28.377H39.386C39.3438 28.3825 39.301 28.3724 39.2657 28.3486C39.2304 28.3249 39.2049 28.2892 39.194 28.248H39.196ZM29.167 25.3828V6H31.294V25.3818L29.167 25.3828Z" fill="white"/>
</svg>
