<svg width="62" height="62" viewBox="0 0 62 62" fill="none" xmlns="http://www.w3.org/2000/svg">
<path d="M62 0H0V62H62V0Z" fill="#B92770"/>
<path d="M43.3479 52.7002C42.8366 52.4832 42.3821 52.151 42.0199 51.73C41.9104 51.5811 41.7568 51.4706 41.5808 51.4141C41.4049 51.3575 41.2156 51.3579 41.0399 51.415C40.5299 51.563 40.0239 51.7242 39.5139 51.8652C39.0039 52.0062 39.0049 51.9978 38.7279 51.4238L39.3879 51.2139C39.8879 51.0499 40.3879 50.8499 40.9039 50.7349C41.4619 50.6089 41.5409 50.2509 41.5799 49.7769C41.6039 48.9914 41.7112 48.2111 41.8999 47.4482C42.1042 46.8068 42.4354 46.2126 42.8738 45.7017C43.3122 45.1908 43.8489 44.7734 44.4519 44.4741C44.5989 44.4142 44.7495 44.363 44.9029 44.3218C44.5289 46.1218 44.5449 47.905 43.5489 49.5C44.3039 48.9 45.0949 48.344 45.7919 47.689C45.8791 47.5432 45.9332 47.3799 45.9505 47.2109C45.9678 47.042 45.9478 46.8713 45.8919 46.7109C45.5432 45.6656 45.4675 44.5486 45.672 43.4658C45.8764 42.383 46.3541 41.3702 47.0599 40.5239C47.2169 40.3538 47.3838 40.1932 47.5599 40.043C47.7029 41.943 48.1789 43.667 47.7599 45.436L47.8779 45.499C48.3454 44.8331 48.7761 44.1423 49.1679 43.4292C49.1977 43.2667 49.1942 43.0995 49.1576 42.9385C49.121 42.7774 49.052 42.6258 48.9549 42.4922C48.3656 41.5423 48.0206 40.4609 47.9508 39.3452C47.881 38.2295 48.0886 37.1141 48.5549 36.0981C48.6192 35.9351 48.7198 35.7885 48.8489 35.6699C49.5649 37.3639 50.4589 38.983 50.4559 40.918C50.6759 40.283 50.8469 39.6251 51.1269 39.0181C51.3525 38.5939 51.4097 38.1003 51.2872 37.6357C51.1646 37.1712 50.8713 36.77 50.4659 36.5122C49.4445 35.5246 48.8461 34.1787 48.7969 32.7588C48.7555 32.0261 48.7511 31.2922 48.7839 30.5591L49.0449 30.4922C50.1199 31.9162 51.4019 33.2102 51.9969 34.9922C52.0399 34.0922 52.0969 33.1968 52.1169 32.2988C52.1156 32.1015 52.0536 31.9095 51.9395 31.7485C51.8254 31.5876 51.6646 31.4655 51.4789 31.3989C49.1519 30.2899 48.4349 28.2589 48.2209 25.9409C48.2346 25.8195 48.2611 25.6999 48.2999 25.584C49.5949 26.693 51.0679 27.4892 51.8199 29.0352L51.9629 28.9868C51.7779 28.0468 51.6179 27.0999 51.3839 26.1709C51.3235 26.062 51.2386 25.9687 51.1358 25.8984C51.033 25.8281 50.9153 25.7829 50.7919 25.7661C48.7359 25.5851 47.6739 24.2512 46.8799 22.5942C46.698 22.2241 46.5562 21.8354 46.4569 21.4351C47.9327 21.8238 49.3274 22.4723 50.5759 23.3501C50.2721 22.5726 49.9249 21.8128 49.5359 21.0742C49.4189 20.8742 48.8939 20.787 48.5839 20.833C47.9718 20.9258 47.3465 20.8731 46.7586 20.6792C46.1707 20.4853 45.6367 20.1555 45.1999 19.7168C44.7327 19.2573 44.3337 18.7336 44.0149 18.1611C44.2149 18.1611 44.4149 18.1611 44.6209 18.1611C45.8823 18.0547 47.1504 18.2649 48.3099 18.7729C47.9293 18.1877 47.5146 17.6253 47.0679 17.0889C46.9329 16.9429 46.4619 16.9629 46.2159 17.0659C45.3826 17.3702 44.4728 17.3945 43.6246 17.1348C42.7763 16.8751 42.036 16.3456 41.5159 15.627C41.4911 15.5837 41.4723 15.5371 41.4599 15.4888C41.9649 15.0408 44.1959 14.8892 45.3739 15.2202C45.1946 14.9031 44.9487 14.6286 44.6532 14.4155C44.3576 14.2025 44.0194 14.0557 43.6619 13.9858C42.9639 13.8596 42.3074 13.5647 41.7496 13.1265C41.1918 12.6883 40.7498 12.1204 40.4619 11.4722C40.269 11.054 40.0988 10.6255 39.9519 10.189C40.0459 10.135 40.0799 10.097 40.1009 10.104C41.4101 10.363 42.6351 10.9415 43.6669 11.7881C43.9173 12.0046 44.1203 12.2706 44.2629 12.5693C44.4056 12.8681 44.4849 13.193 44.4959 13.5239C44.5033 13.6705 44.5641 13.8093 44.6669 13.9141C45.2669 14.4941 45.8779 15.0568 46.4769 15.6138C45.6616 13.9799 45.4234 12.1185 45.8009 10.332L45.9629 10.2471C46.3269 10.6561 46.7209 11.0471 47.0539 11.4751C47.9304 12.54 48.426 13.8673 48.4619 15.2461C48.4551 15.6973 48.3431 16.1407 48.1349 16.541C48.009 16.749 47.9492 16.9902 47.9635 17.2329C47.9778 17.4756 48.0655 17.7081 48.2149 17.8999C48.6379 18.5099 49.0389 19.1339 49.4949 19.7559C49.0538 17.9794 49.304 16.1019 50.1949 14.5029C50.3049 14.6029 50.4019 14.6471 50.4479 14.7241C51.3905 16.3356 51.8033 18.2024 51.6279 20.061C51.5382 20.5562 51.3273 21.0214 51.0139 21.415C50.8971 21.5582 50.8166 21.7273 50.7792 21.9082C50.7417 22.0891 50.7485 22.2764 50.7989 22.4541C51.0299 23.1891 51.3269 23.9048 51.6289 24.6318C51.5472 23.6952 51.671 22.7525 51.9915 21.8687C52.3121 20.9848 52.8217 20.1816 53.4849 19.5151C53.6476 19.9353 53.7675 20.3707 53.8429 20.8149C53.9343 22.0176 53.9593 23.2247 53.9179 24.4302C53.8845 24.8546 53.7662 25.2681 53.57 25.646C53.3738 26.0239 53.1038 26.3583 52.7759 26.6299C52.5865 26.7988 52.4463 27.0158 52.3701 27.2578C52.2938 27.4999 52.2845 27.7579 52.3429 28.0049C52.4429 28.7049 52.4959 29.4052 52.5989 30.1372C52.7684 29.1941 53.1287 28.2955 53.6578 27.4966C54.1869 26.6977 54.8737 26.0153 55.6759 25.4912C55.7331 25.6944 55.7749 25.9013 55.8009 26.1108C55.8749 27.7689 55.5158 29.4179 54.7589 30.895C54.6148 31.2236 54.4021 31.5176 54.1351 31.7573C53.8682 31.9971 53.5531 32.1771 53.2109 32.2852C52.7759 32.4112 52.7329 32.7849 52.7009 33.1289C52.6109 34.0659 52.5519 35.0061 52.4829 35.9351C52.7689 35.5151 53.0489 35.0568 53.3759 34.6348C54.0864 33.7095 55.0448 33.0052 56.1399 32.603C56.3034 32.5615 56.4712 32.5394 56.6399 32.5371V33.1431C56.1719 34.1981 55.7469 35.2738 55.2189 36.2998C54.9632 36.7811 54.6014 37.1982 54.1609 37.519C53.7205 37.8265 53.2168 38.0316 52.6869 38.1191C52.5278 38.1237 52.3732 38.1728 52.2409 38.2612C52.1086 38.3497 52.0039 38.4739 51.9389 38.6191C51.5019 39.7251 51.1019 40.843 50.6329 42.106C51.2267 41.3997 51.9774 40.8421 52.825 40.4775C53.6727 40.1129 54.5938 39.9513 55.5149 40.0059C55.3988 40.4436 55.2249 40.864 54.9979 41.2559C54.3715 42.094 53.6685 42.8723 52.8979 43.5801C52.5186 43.9083 52.0606 44.1322 51.5686 44.23C51.0767 44.3278 50.5678 44.2963 50.0919 44.1382C49.9405 44.1326 49.7898 44.1615 49.6513 44.2227C49.5127 44.2838 49.3898 44.3756 49.2919 44.4912C48.7189 45.2012 48.2149 45.9658 47.6379 46.7788C48.4604 46.347 49.3746 46.1191 50.3035 46.1143C51.2324 46.1094 52.1489 46.3278 52.9759 46.751C52.7258 47.072 52.451 47.3728 52.1539 47.6509C51.0477 48.6454 49.6114 49.1936 48.1239 49.189C47.5995 49.0818 47.0895 48.914 46.6039 48.689C46.3509 48.614 45.9919 48.4891 45.8239 48.6011C45.0869 49.0791 44.4029 49.6329 43.6299 50.2139C44.5358 50.0745 45.4617 50.1463 46.3353 50.4238C47.2089 50.7014 48.0065 51.1773 48.6659 51.814C48.4632 52.0057 48.241 52.1754 48.0029 52.3208C47.1107 52.7494 46.1365 52.9805 45.1469 52.998C44.5348 52.9998 43.9267 52.8992 43.3479 52.7002ZM13.3249 52.355C13.0774 52.2144 12.8431 52.0519 12.6249 51.8691C13.2588 51.2189 14.0347 50.7241 14.8918 50.4238C15.7488 50.1235 16.6637 50.0259 17.5649 50.1382C17.2579 49.9312 16.9449 49.7381 16.6479 49.5161C16.2981 49.2171 15.9308 48.9393 15.5479 48.6841C15.3359 48.5631 14.9159 48.4909 14.7729 48.6089C14.394 48.9088 13.9471 49.111 13.4715 49.1968C12.996 49.2826 12.5067 49.2496 12.0469 49.1011C10.6589 48.8382 9.40565 48.1008 8.50188 47.0151C8.44377 46.9248 8.3907 46.831 8.34288 46.7349C9.1587 46.3147 10.0643 46.0993 10.982 46.1064C11.8996 46.1136 12.8017 46.3431 13.6109 46.7759C13.0189 45.9469 12.4799 45.154 11.8959 44.395C11.7989 44.2545 11.6554 44.1528 11.4907 44.1079C11.326 44.0631 11.1507 44.0779 10.9959 44.1499C10.6352 44.2694 10.2523 44.3069 9.87526 44.2593C9.49824 44.2117 9.13662 44.0804 8.81688 43.875C7.54063 43.1427 6.53824 42.014 5.9619 40.6602C5.88746 40.4465 5.82928 40.2273 5.78789 40.0049C6.69912 39.9542 7.60962 40.1163 8.44728 40.4785C9.28495 40.8408 10.0267 41.3931 10.6139 42.0918C10.1529 40.8458 9.7609 39.7419 9.3319 38.6509C9.28381 38.4857 9.17852 38.3432 9.0349 38.2485C8.89127 38.1538 8.71867 38.1129 8.5479 38.1338C8.26396 38.1429 7.98139 38.0909 7.71944 37.981C7.45749 37.871 7.2223 37.7061 7.02989 37.4971C5.7681 36.2777 4.93074 34.6857 4.64089 32.9551C4.62882 32.795 4.62882 32.6342 4.64089 32.4741C5.53966 32.7361 6.37274 33.1853 7.08528 33.7925C7.79782 34.3997 8.37366 35.1512 8.77489 35.9971C8.70389 35.0521 8.63889 34.141 8.56789 33.23C8.57621 32.9955 8.50634 32.7651 8.36931 32.5747C8.23228 32.3843 8.03586 32.2448 7.8109 32.1782C7.34576 31.9713 6.95546 31.6261 6.69289 31.1899C5.75613 29.6139 5.32478 27.7886 5.4569 25.96C5.48139 25.8013 5.51816 25.6451 5.56688 25.4922C6.37006 26.013 7.05979 26.6905 7.59471 27.4844C8.12964 28.2783 8.49874 29.1718 8.67989 30.1118C8.76689 29.2718 8.8799 28.4328 8.9229 27.5908C8.93222 27.3055 8.8279 27.0282 8.63289 26.8198C7.23289 25.5628 7.12187 23.9329 7.23787 22.2559C7.32582 21.4559 7.45939 20.6617 7.6379 19.877C7.6539 19.788 7.7379 19.7111 7.8189 19.5771C8.4684 20.2424 8.96814 21.0388 9.28462 21.9131C9.60111 22.7873 9.72701 23.7191 9.65389 24.646C9.92989 23.878 10.2539 23.122 10.4539 22.335C10.5229 22.064 10.3189 21.7141 10.2059 21.4131C9.92983 20.9211 9.72384 20.3932 9.59389 19.8442C9.48858 18.153 9.85373 16.4656 10.6489 14.9692C10.7309 14.8112 10.8489 14.6692 11.0119 14.4292C11.9269 16.0504 12.2019 17.9552 11.7829 19.769C12.2639 19.04 12.7709 18.3272 13.2089 17.5752C13.2698 17.4565 13.3028 17.3253 13.3054 17.1919C13.308 17.0585 13.2801 16.9262 13.2239 16.8052C12.9667 16.377 12.81 15.8959 12.7656 15.3984C12.7213 14.9009 12.7904 14.4 12.9679 13.9331C13.3759 12.4591 14.23 11.1476 15.4129 10.1782C15.829 12.0032 15.6037 13.9159 14.7749 15.5942C15.3849 15.0262 16.0289 14.435 16.6619 13.833C16.7256 13.7563 16.7584 13.6587 16.7539 13.5591C16.7628 13.1767 16.859 12.8013 17.0353 12.4619C17.2116 12.1225 17.4632 11.8282 17.7709 11.6011C18.8439 10.8635 20.038 10.32 21.2989 9.99512C21.1151 10.9315 20.6959 11.8056 20.0809 12.5352C19.3587 13.3395 18.3882 13.8788 17.3239 14.0679C16.7348 14.3091 16.2109 14.6861 15.7949 15.168C17.1819 14.73 18.4749 15.1239 19.8949 15.3599C19.5817 15.8741 19.1573 16.3118 18.6529 16.6406C18.1485 16.9694 17.5768 17.1808 16.9799 17.2598C16.3881 17.3115 15.7918 17.2539 15.2209 17.0898C14.3759 16.8618 14.2989 16.8371 13.7779 17.5581C13.5419 17.8881 13.3169 18.2261 13.0869 18.5581C13.0409 18.6271 13.0029 18.701 12.8869 18.897C14.2869 18.065 15.7279 18.1521 17.1749 18.0601C17.1749 18.1681 17.1999 18.2469 17.1749 18.2949C16.8321 18.9752 16.3296 19.5623 15.7103 20.0059C15.0909 20.4494 14.3733 20.7362 13.6189 20.8418C13.2261 20.8614 12.8324 20.8406 12.4439 20.7798C12.2512 20.7392 12.0503 20.7725 11.881 20.873C11.7117 20.9736 11.5864 21.1346 11.5299 21.3232C11.2739 21.9972 10.9669 22.6518 10.7129 23.3428C11.8749 22.3068 13.3619 21.9689 14.7129 21.3569L14.8409 21.4668C14.6589 21.8868 14.4949 22.3171 14.2909 22.7251C13.9061 23.6759 13.2476 24.4908 12.3989 25.0669C11.913 25.3429 11.387 25.5411 10.8399 25.6548C10.0079 25.8288 9.86887 25.8911 9.70387 26.7031C9.54518 27.4651 9.42637 28.2345 9.34789 29.0088C10.1589 27.4908 11.6319 26.6848 12.8679 25.6318L13.0349 25.688C12.9739 26.188 12.9479 26.699 12.8459 27.188C12.6048 28.6392 11.8319 29.9485 10.6779 30.8608C10.4111 31.0447 10.1275 31.2029 9.83089 31.333C9.60014 31.4229 9.40501 31.5856 9.27507 31.7964C9.14513 32.0072 9.08749 32.2545 9.11089 32.501C9.16189 33.323 9.1999 34.1458 9.2979 34.9888C9.8209 33.2048 11.1159 31.9248 12.1629 30.4888L12.3439 30.5059C12.3949 30.9359 12.4829 31.3659 12.4919 31.7979C12.5512 33.1045 12.2209 34.3995 11.5429 35.5181C11.1993 36.0199 10.8045 36.4844 10.3649 36.9048C10.1377 37.0783 9.97376 37.322 9.89824 37.5977C9.82273 37.8733 9.83982 38.1661 9.94689 38.4312C10.2639 39.2372 10.4929 40.0752 10.8099 40.8892C10.7819 38.9822 11.6699 37.3591 12.3099 35.6641L12.4919 35.6362C12.6983 36.0951 12.877 36.5656 13.0269 37.0459C13.2975 37.9448 13.3718 38.8916 13.2447 39.8218C13.1175 40.7519 12.7919 41.6437 12.2899 42.437C12.1179 42.6484 12.0265 42.914 12.032 43.1865C12.0375 43.459 12.1395 43.7205 12.3199 43.9248C12.7039 44.4088 13.0199 44.9459 13.4199 45.4399C13.0569 43.6549 13.5379 41.9348 13.6579 40.0518C13.8234 40.1649 13.9783 40.2931 14.1209 40.4341C14.8474 41.2748 15.3417 42.2904 15.555 43.3809C15.7683 44.4713 15.6931 45.5984 15.3369 46.6509C15.2294 46.8727 15.207 47.1261 15.2739 47.3633C15.3408 47.6005 15.4924 47.805 15.6999 47.938C16.3839 48.425 17.0329 48.96 17.7269 49.438C16.9422 47.8474 16.4994 46.11 16.4269 44.3379C17.0419 44.5307 17.5942 44.8841 18.0269 45.3618C18.5544 45.8648 18.9722 46.4719 19.254 47.144C19.5359 47.8162 19.6758 48.5393 19.6649 49.2681C19.6499 50.4741 19.6649 50.4842 20.8249 50.8892C21.3669 51.0782 21.9249 51.2212 22.4909 51.3892C22.3739 51.8192 22.2009 52.0271 21.7489 51.8691C21.2489 51.6941 20.7329 51.5602 20.2259 51.4072C20.0464 51.3253 19.8426 51.3138 19.6552 51.3755C19.4678 51.4372 19.3106 51.5677 19.2149 51.7402C19.0214 52.0233 18.7727 52.2638 18.4836 52.4482C18.1945 52.6326 17.8711 52.7569 17.5329 52.813C17.0656 52.9161 16.5885 52.9687 16.1099 52.9692C15.148 52.9688 14.1978 52.759 13.3249 52.355ZM22.5459 42.835C22.385 42.6567 22.2625 42.4473 22.1857 42.2197C22.109 41.9922 22.0798 41.7515 22.0999 41.5122V41.4512L22.3999 39.751C22.5592 38.8596 22.7186 37.9652 22.8779 37.0679C22.9189 36.8379 22.9619 36.6099 23.0059 36.3799C23.0999 35.8799 23.1879 35.4038 23.2569 34.9258C21.7339 33.4748 20.1719 32.0141 18.6569 30.6001L18.5679 30.5171C18.2715 30.3015 18.0506 29.9981 17.9362 29.6499C17.8219 29.3017 17.82 28.9265 17.9309 28.5771C18.0618 28.2518 18.2854 27.9718 18.5739 27.7725C18.8625 27.5732 19.2033 27.4633 19.5539 27.4561L19.6199 27.4482C20.5459 27.3222 21.4879 27.19 22.3969 27.064C23.6049 26.895 24.8539 26.7212 26.0829 26.5562C26.7439 25.2442 27.4269 23.9188 28.0829 22.6348C28.3862 22.0441 28.6892 21.4535 28.9919 20.8628C29.118 20.5343 29.3384 20.2504 29.6254 20.0469C29.9124 19.8433 30.2532 19.7296 30.6049 19.7192C30.9563 19.729 31.2971 19.8426 31.584 20.0459C31.8709 20.2492 32.0911 20.5325 32.2169 20.8608L32.2239 20.8711C32.5326 21.4751 32.8422 22.0785 33.1529 22.6812C33.8059 23.9502 34.4809 25.2611 35.1349 26.5591C36.3179 26.7201 37.5179 26.8859 38.6799 27.0459C39.6712 27.1839 40.6619 27.3213 41.6519 27.458H41.6589C42.0125 27.4631 42.3566 27.5737 42.6471 27.7754C42.9376 27.977 43.1614 28.2603 43.2899 28.5898C43.3961 28.9347 43.3931 29.3043 43.2814 29.6475C43.1698 29.9906 42.9548 30.2906 42.6659 30.5068C42.0359 31.0942 41.4072 31.6829 40.7799 32.2729C39.8559 33.1409 38.9009 34.0389 37.9539 34.9189C38.3609 37.0699 38.7369 39.1959 39.0729 41.2349C39.1331 41.5703 39.0996 41.9158 38.9761 42.2334C38.8526 42.551 38.6439 42.8286 38.3729 43.0352C38.103 43.19 37.7959 43.2674 37.4849 43.2598C37.1555 43.262 36.8298 43.1903 36.5319 43.0498C34.8089 42.2078 32.9229 41.2599 30.6039 40.0669C28.5989 41.0989 26.5539 42.1289 24.6439 43.0879C24.3503 43.2409 24.0249 43.3231 23.6939 43.3271C23.4792 43.3273 23.2667 43.2838 23.0693 43.1992C22.872 43.1146 22.6939 42.9905 22.5459 42.835ZM29.8719 23.5542C29.2069 24.8462 28.5209 26.181 27.8569 27.499C27.7283 27.7821 27.5278 28.0266 27.2753 28.208C27.0228 28.3894 26.7272 28.5016 26.4179 28.5332C25.1719 28.7002 23.9069 28.8779 22.6829 29.0479C21.8969 29.1559 21.0829 29.2699 20.2829 29.3799C21.7449 30.7469 23.2479 32.1551 24.7169 33.5571C24.9113 33.7379 25.0622 33.9605 25.1583 34.208C25.2545 34.4555 25.2933 34.7212 25.2719 34.9858C25.1929 35.5858 25.0819 36.1809 24.9719 36.7539C24.9309 36.9769 24.8879 37.1999 24.8489 37.4229C24.6899 38.3179 24.5309 39.214 24.3709 40.105L24.1989 41.0752C25.9989 40.1752 27.8989 39.2139 29.7589 38.2559C30.0232 38.1126 30.3183 38.0353 30.6189 38.0308C30.9167 38.0346 31.2091 38.1109 31.4709 38.2529C33.6599 39.3799 35.3949 40.2532 37.0289 41.0532C36.7109 39.1532 36.3589 37.1829 35.9819 35.1909C35.9136 34.8841 35.9305 34.5645 36.0307 34.2666C36.131 33.9687 36.3109 33.704 36.5509 33.501C37.5109 32.61 38.4829 31.696 39.4229 30.814C39.9336 30.3346 40.4446 29.8556 40.9559 29.377L38.4159 29.0249C37.2209 28.8589 35.9869 28.6869 34.7729 28.5249C34.4801 28.4933 34.2005 28.3867 33.961 28.2153C33.7215 28.044 33.5303 27.8137 33.4059 27.5469C32.7399 26.2289 32.0519 24.8902 31.3859 23.5972L30.6179 22.0972L29.8719 23.5542Z" fill="white"/>
</svg>
