<svg width="62" height="62" viewBox="0 0 62 62" fill="none" xmlns="http://www.w3.org/2000/svg">
<path d="M62 0H0V62H62V0Z" fill="#B92770"/>
<path d="M45.0938 50C44.9468 50 44.7937 49.993 44.6517 49.98H44.6278C38.9615 49.3599 33.5176 47.4282 28.7277 44.338C24.2839 41.5078 20.5122 37.7406 17.6767 33.3C14.5707 28.5026 12.6338 23.0432 12.0217 17.361V17.34C11.9606 16.6623 12.0414 15.9793 12.2588 15.3345C12.4762 14.6897 12.8255 14.0972 13.2845 13.5948C13.7435 13.0925 14.3021 12.6912 14.9247 12.4166C15.5473 12.1421 16.2203 12.0002 16.9007 12H22.2597C23.4412 11.9987 24.5834 12.4243 25.4759 13.1985C26.3684 13.9726 26.9511 15.0432 27.1167 16.213V16.226C27.3297 17.8232 27.7225 19.3911 28.2877 20.9C28.6157 21.777 28.6858 22.7296 28.4898 23.6451C28.2938 24.5607 27.8399 25.4011 27.1817 26.067L27.1767 26.072L25.6717 27.572C27.8704 31.1075 30.8565 34.087 34.3967 36.278L35.9047 34.773L35.9097 34.768C36.5771 34.1101 37.4188 33.6569 38.3355 33.462C39.2521 33.2671 40.2054 33.3386 41.0827 33.668C42.596 34.2312 44.1679 34.622 45.7687 34.833H45.7808C46.9684 34.9994 48.0537 35.5956 48.8313 36.5086C49.6088 37.4216 50.0246 38.588 49.9997 39.787V45.087C50.0015 45.7321 49.8758 46.3711 49.6299 46.9675C49.3841 47.5639 49.0229 48.1059 48.5671 48.5624C48.1112 49.0188 47.5698 49.3808 46.9737 49.6275C46.3777 49.8742 45.7388 50.0008 45.0938 50ZM44.9067 47.278C44.9688 47.283 45.0317 47.286 45.0938 47.286C45.382 47.2868 45.6676 47.2306 45.9341 47.1207C46.2005 47.0108 46.4427 46.8493 46.6466 46.6455C46.8504 46.4417 47.012 46.1997 47.1221 45.9332C47.2321 45.6668 47.2884 45.3813 47.2878 45.093V39.775C47.2878 39.7637 47.2878 39.7523 47.2878 39.741C47.3004 39.2057 47.1162 38.6844 46.77 38.276C46.4239 37.8675 45.9398 37.6003 45.4097 37.525C43.6074 37.2871 41.8376 36.847 40.1337 36.213C39.7417 36.0658 39.3159 36.0335 38.9061 36.1199C38.4964 36.2064 38.1199 36.408 37.8207 36.701L35.5697 38.948C35.3597 39.1578 35.0866 39.293 34.7924 39.3327C34.4981 39.3725 34.1989 39.3146 33.9407 39.168C29.2893 36.5278 25.4363 32.6817 22.7877 28.035C22.6404 27.7765 22.5821 27.4767 22.6219 27.1818C22.6616 26.8869 22.7972 26.6133 23.0077 26.403L25.2587 24.157C25.5511 23.8602 25.7526 23.486 25.8394 23.0785C25.9262 22.671 25.8947 22.2472 25.7487 21.857C25.1113 20.1561 24.6681 18.3885 24.4277 16.588C24.3499 16.0681 24.0884 15.5934 23.6907 15.2496C23.293 14.9058 22.7854 14.7158 22.2597 14.714H16.9017C16.599 14.7139 16.2995 14.7767 16.0222 14.8983C15.745 15.02 15.496 15.1979 15.2911 15.4208C15.0861 15.6436 14.9297 15.9067 14.8317 16.1931C14.7337 16.4796 14.6963 16.7833 14.7217 17.085C15.2891 22.3417 17.0818 27.392 19.9557 31.83L19.9617 31.84C22.5855 35.9469 26.0757 39.4303 30.1877 42.046L30.1987 42.053C34.6293 44.9129 39.6649 46.7018 44.9067 47.278Z" fill="white"/>
</svg>
