<svg width="27" height="27" viewBox="0 0 27 27" fill="none" xmlns="http://www.w3.org/2000/svg">
<path d="M3.89403 22.9855C1.38872 20.4484 -0.0111338 17.0232 6.66984e-05 13.4576C0.0112672 9.892 1.43261 6.47564 3.95381 3.95431C6.47501 1.43298 9.8913 0.0114562 13.4569 6.89412e-05C17.0225 -0.0113183 20.4478 1.38835 22.985 3.89353C25.4903 6.43065 26.8902 9.85588 26.879 13.4215C26.8678 16.9871 25.4464 20.4034 22.9252 22.9248C20.404 25.4461 16.9878 26.8676 13.4222 26.879C9.85658 26.8904 6.43128 25.4907 3.89403 22.9855ZM5.30803 5.30853C4.22702 6.37346 3.36747 7.64181 2.7789 9.04046C2.19034 10.4391 1.8844 11.9404 1.87872 13.4579C1.87303 14.9753 2.16772 16.4789 2.7458 17.8819C3.32388 19.2849 4.17391 20.5597 5.24691 21.6326C6.3199 22.7056 7.59465 23.5557 8.99767 24.1338C10.4007 24.7118 11.9043 25.0065 13.4217 25.0008C14.9391 24.9952 16.4404 24.6892 17.8391 24.1007C19.2377 23.5121 20.5061 22.6525 21.571 21.5715C22.652 20.5066 23.5116 19.2383 24.1001 17.8396C24.6887 16.4409 24.9947 14.9396 25.0003 13.4222C25.006 11.9048 24.7113 10.4012 24.1333 8.99818C23.5552 7.59515 22.7051 6.32041 21.6321 5.24741C20.5591 4.17441 19.2844 3.32438 17.8814 2.7463C16.4784 2.16823 14.9748 1.87354 13.4574 1.87922C11.9399 1.8849 10.4386 2.19084 9.03996 2.77941C7.6413 3.36797 6.37296 4.22753 5.30803 5.30853ZM17.617 16.7505L12.992 14.4395C12.825 14.3561 12.6847 14.2276 12.587 14.0685C12.4893 13.9094 12.438 13.7262 12.439 13.5395V6.60653C12.439 6.34131 12.5444 6.08696 12.7319 5.89942C12.9195 5.71189 13.1738 5.60653 13.439 5.60653C13.7042 5.60653 13.9586 5.71189 14.1461 5.89942C14.3337 6.08696 14.439 6.34131 14.439 6.60653V12.9255L18.512 14.9625C18.6325 15.0195 18.7403 15.0999 18.8292 15.1991C18.9182 15.2983 18.9864 15.4142 19.0299 15.5401C19.0734 15.6661 19.0913 15.7994 19.0825 15.9323C19.0738 16.0653 19.0385 16.1951 18.9789 16.3142C18.9193 16.4334 18.8364 16.5394 18.7353 16.626C18.6341 16.7127 18.5166 16.7783 18.3898 16.8189C18.2629 16.8596 18.1292 16.8745 17.9965 16.8627C17.8638 16.851 17.7348 16.8128 17.617 16.7505Z" fill="#B92770"/>
</svg>
