<svg width="62" height="62" viewBox="0 0 62 62" fill="none" xmlns="http://www.w3.org/2000/svg">
<path d="M62 0H0V62H62V0Z" fill="#B92770"/>
<path d="M27.107 55.3741C23.6991 53.8759 20.4516 52.0371 17.414 49.8853L16.604 49.354C16.2441 49.0598 15.8129 48.8659 15.354 48.792C15.0259 48.8227 14.7167 48.9594 14.473 49.1812C13.346 49.9972 12.182 50.7002 10.836 51.5132C10.224 51.8822 9.59096 52.2641 8.91196 52.6861C8.74493 52.7898 8.55106 52.8423 8.35452 52.8365C8.15798 52.8306 7.96752 52.7669 7.80698 52.6534C7.64593 52.5397 7.52206 52.3811 7.4509 52.1973C7.37973 52.0135 7.36447 51.8126 7.40701 51.6202C9.03701 44.2682 10.549 37.4514 12.117 30.3804C12.1464 30.2473 12.2027 30.1214 12.2825 30.0108C12.3623 29.9002 12.4639 29.8072 12.581 29.7373C12.6984 29.6679 12.8288 29.6232 12.9641 29.606C13.0995 29.5888 13.2369 29.5993 13.368 29.6372L34.162 35.5772C34.3398 35.6278 34.5002 35.727 34.6252 35.8633C34.7501 35.9996 34.8349 36.1676 34.87 36.3492C34.9048 36.5305 34.8888 36.7179 34.8237 36.8907C34.7586 37.0635 34.6469 37.215 34.501 37.3282L28.446 42.0284C30.3534 42.5474 32.3202 42.8161 34.297 42.8282C38.0113 42.8064 41.6495 41.7726 44.82 39.8374C48.1971 37.7536 51.2656 35.2064 53.936 32.271C54.0916 32.1085 54.2975 32.0037 54.5203 31.9727C54.7431 31.9417 54.9699 31.9863 55.164 32.1001C55.3582 32.2144 55.5081 32.3909 55.5894 32.6011C55.6708 32.8113 55.6787 33.0431 55.612 33.2583C54.5504 36.9245 53.1584 40.4868 51.453 43.9014C49.69 47.3833 47.222 50.4601 44.206 52.937C41.3105 55.3739 37.6524 56.7188 33.868 56.7373C31.5483 56.7162 29.2537 56.2533 27.107 55.3741ZM17.701 47.6812L18.514 48.2163C21.44 50.2906 24.5666 52.066 27.847 53.5161C29.7595 54.3024 31.8042 54.7179 33.872 54.7403C37.1997 54.7164 40.4137 53.5269 42.955 51.3785C45.7581 49.0725 48.0507 46.2083 49.687 42.9683C50.748 40.9044 51.661 38.7676 52.419 36.5743C50.4109 38.4716 48.2022 40.1446 45.832 41.564C42.356 43.6795 38.3691 44.8078 34.3 44.8272C31.4678 44.7969 28.6597 44.3034 25.987 43.3662C25.8157 43.3084 25.6634 43.2054 25.5461 43.0679C25.4288 42.9304 25.351 42.7632 25.321 42.585C25.2911 42.4067 25.3101 42.224 25.3759 42.0557C25.4418 41.8874 25.5521 41.7401 25.695 41.6294L31.718 36.9541L13.84 31.8472C12.518 37.8132 11.229 43.6233 9.86801 49.7583C11.149 48.9863 12.259 48.3151 13.299 47.5581C13.882 47.0849 14.6035 46.8148 15.354 46.7891C16.2065 46.8502 17.0232 47.1605 17.701 47.6812ZM47.473 31.4024L45.267 30.7671L26.718 25.4263C26.5407 25.3752 26.381 25.2759 26.2566 25.1397C26.1321 25.0034 26.0478 24.8355 26.013 24.6543C25.9781 24.473 25.9941 24.2856 26.0592 24.1128C26.1244 23.94 26.2361 23.7885 26.382 23.6753L32.31 19.0752C30.5413 18.3975 28.661 18.0583 26.767 18.0752C23.2761 18.145 19.8538 19.057 16.791 20.7334C12.9534 22.822 9.56653 25.6484 6.82498 29.0503C6.67821 29.2272 6.47502 29.348 6.24954 29.3926C6.02406 29.4372 5.79008 29.4031 5.587 29.2954C5.38375 29.1878 5.22381 29.0132 5.13418 28.8013C5.04456 28.5895 5.03074 28.3532 5.095 28.1324C5.95969 25.0295 7.07121 22.0008 8.41897 19.0752C9.7887 16.1052 11.5673 13.3414 13.703 10.8643C15.4163 8.8495 17.5142 7.19679 19.874 6.00248C22.1132 4.8981 24.5773 4.32583 27.074 4.33109C29.962 4.37444 32.8084 5.0257 35.428 6.24222C38.1461 7.55767 40.7348 9.12533 43.16 10.9244C43.6 11.2244 44.052 11.5432 44.496 11.8472C44.774 12.0791 45.1035 12.2411 45.457 12.3194C45.6778 12.2915 45.886 12.2007 46.057 12.0581C47.315 11.1861 48.63 10.3742 50.024 9.51517C50.649 9.13217 51.293 8.73314 51.969 8.30814C52.1361 8.20275 52.3308 8.14917 52.5284 8.15433C52.7259 8.15949 52.9176 8.22346 53.079 8.33744C53.2404 8.45119 53.3645 8.60979 53.4357 8.79398C53.5069 8.97817 53.5219 9.17937 53.479 9.37211L48.726 30.6582C48.6963 30.7916 48.6397 30.9173 48.5595 31.0279C48.4794 31.1385 48.3774 31.2316 48.26 31.3013C48.1054 31.3922 47.9293 31.4404 47.75 31.4405C47.6563 31.4408 47.5631 31.428 47.473 31.4024ZM34.695 17.9732C34.8424 18.052 34.9676 18.1664 35.0594 18.3062C35.1511 18.4459 35.2063 18.6069 35.22 18.7735C35.2345 18.9398 35.2071 19.1068 35.1404 19.2598C35.0737 19.4128 34.9697 19.5469 34.838 19.6495L29.164 24.0494L45.82 28.8492L47.006 29.1905L51.006 11.2593C49.661 12.0893 48.389 12.8752 47.196 13.7032C46.6953 14.0848 46.0881 14.301 45.459 14.3213C44.6942 14.2672 43.9645 13.9797 43.368 13.4981C42.919 13.1891 42.463 12.8734 42.022 12.5684C39.6973 10.8434 37.218 9.337 34.616 8.0684C32.2523 6.96723 29.6832 6.37542 27.076 6.33207C24.8847 6.32731 22.722 6.82866 20.756 7.79642C18.6347 8.87435 16.7496 10.3642 15.211 12.1792C13.1965 14.5169 11.5196 17.1253 10.229 19.9283C9.57297 21.3173 8.96596 22.7953 8.38296 24.4283C10.6063 22.2635 13.1238 20.4233 15.861 18.9615C19.2108 17.1338 22.9527 16.1428 26.768 16.0733C29.5268 16.0403 32.2506 16.6937 34.695 17.9732Z" fill="white"/>
</svg>
