<svg width="62" height="62" viewBox="0 0 62 62" fill="none" xmlns="http://www.w3.org/2000/svg">
<path d="M62 0H0V62H62V0Z" fill="#B92770"/>
<path d="M18.1404 45C16.9761 44.9926 15.8622 44.5239 15.0427 43.6968C14.2233 42.8696 13.7651 41.7513 13.7686 40.5869V21.4131C13.7651 20.2487 14.2233 19.1304 15.0427 18.3032C15.8622 17.4761 16.9761 17.0074 18.1404 17H43.3994C44.5638 17.0074 45.6778 17.4761 46.4973 18.3032C47.3168 19.1304 47.775 20.2487 47.7715 21.4131V40.5869C47.775 41.7513 47.3168 42.8696 46.4973 43.6968C45.6778 44.5239 44.5638 44.9926 43.3994 45H18.1404ZM16.1985 40.5869C16.1942 41.1067 16.3962 41.607 16.7603 41.978C17.1243 42.349 17.6206 42.5604 18.1404 42.5659H43.3994C43.9191 42.5601 44.4153 42.3485 44.7793 41.9775C45.1433 41.6066 45.3456 41.1066 45.3416 40.5869V23.981L31.4744 34.1362C31.2714 34.2854 31.0263 34.3662 30.7744 34.3672C30.5225 34.3663 30.2775 34.2854 30.0745 34.1362L16.2075 23.981L16.1985 40.5869ZM30.7686 31.5801L45.2864 20.9492C45.1876 20.5216 44.9478 20.1394 44.6055 19.8647C44.2632 19.5901 43.8383 19.4388 43.3994 19.4351H18.1404C17.7015 19.4387 17.2767 19.5901 16.9343 19.8647C16.592 20.1394 16.3521 20.5215 16.2534 20.9492L30.7686 31.5801Z" fill="white"/>
</svg>
