<svg width="20" height="20" viewBox="0 0 20 20" fill="none" xmlns="http://www.w3.org/2000/svg">
<path d="M16.4173 0H3.484C2.56133 0.0131837 1.68039 0.386664 1.02939 1.04065C0.378396 1.69464 0.00895596 2.57728 0 3.5L0 16.6C0.0298877 17.5065 0.408936 18.3664 1.05794 19C1.70695 19.6336 2.5757 19.9919 3.48267 20H10.448V12.9H8.45733V9.9H10.448V8C10.4457 7.5147 10.5394 7.03374 10.7236 6.58476C10.9078 6.13579 11.1789 5.72764 11.5214 5.3838C11.8639 5.03996 12.271 4.7672 12.7192 4.58121C13.1674 4.39521 13.648 4.29964 14.1333 4.3H16.5213V7.3H14.1333C13.9257 7.31376 13.7301 7.40247 13.583 7.54962C13.4358 7.69677 13.3471 7.89235 13.3333 8.1V10H15.92V13H13.4333V20H16.5173C17.4398 19.9865 18.3204 19.6128 18.9711 18.9589C19.6218 18.3049 19.9911 17.4225 20 16.5V3.5C19.9521 2.57308 19.5568 1.6982 18.8929 1.04959C18.229 0.40099 17.3451 0.0262495 16.4173 0Z" fill="black"/>
</svg>
