<svg width="20" height="20" viewBox="0 0 20 20" fill="none" xmlns="http://www.w3.org/2000/svg">
<path d="M5.556 20C4.08289 19.9986 2.67052 19.4128 1.62887 18.3711C0.587228 17.3295 0.00141204 15.9171 0 14.444L0 5.556C0.00176429 4.083 0.587693 2.67083 1.62926 1.62926C2.67083 0.587693 4.083 0.00176429 5.556 0L14.444 0C15.917 0.00176429 17.3292 0.587693 18.3707 1.62926C19.4123 2.67083 19.9982 4.083 20 5.556V14.4453C19.9982 15.9182 19.4123 17.3302 18.3707 18.3716C17.329 19.413 15.9169 19.9986 14.444 20H5.556ZM4.444 10C4.44374 11.0989 4.76937 12.1733 5.37971 13.0871C5.99005 14.001 6.85768 14.7133 7.87289 15.134C8.88809 15.5548 10.0053 15.665 11.0831 15.4507C12.161 15.2365 13.1511 14.7075 13.9282 13.9305C14.7054 13.1535 15.2347 12.1635 15.4491 11.0857C15.6636 10.008 15.5537 8.89076 15.1332 7.87545C14.7127 6.86015 14.0006 5.99234 13.0869 5.38178C12.1732 4.77122 11.0989 4.44533 10 4.44533C8.52723 4.4471 7.11527 5.03284 6.07373 6.07412C5.0322 7.11541 4.44612 8.52723 4.444 10ZM15.556 3.33333C15.5563 3.55289 15.6216 3.76744 15.7437 3.94988C15.8659 4.13233 16.0394 4.27448 16.2422 4.35838C16.4451 4.44228 16.6684 4.46416 16.8837 4.42126C17.099 4.37836 17.2968 4.27261 17.452 4.11736C17.6073 3.96211 17.713 3.76433 17.7559 3.54901C17.7988 3.33368 17.7769 3.11048 17.693 2.90758C17.6091 2.70469 17.467 2.53121 17.2846 2.40907C17.1021 2.28693 16.8876 2.2216 16.668 2.22133C16.3731 2.22133 16.0902 2.33849 15.8817 2.54703C15.6732 2.75557 15.556 3.03841 15.556 3.33333ZM6.66667 10C6.66667 9.34073 6.86216 8.69626 7.22844 8.1481C7.59471 7.59994 8.1153 7.17269 8.72439 6.9204C9.33348 6.66811 10.0037 6.6021 10.6503 6.73072C11.2969 6.85933 11.8908 7.1768 12.357 7.64298C12.8232 8.10915 13.1407 8.7031 13.2693 9.3497C13.3979 9.9963 13.3319 10.6665 13.0796 11.2756C12.8273 11.8847 12.4001 12.4053 11.8519 12.7716C11.3037 13.1378 10.6593 13.3333 10 13.3333C9.11594 13.3333 8.2681 12.9821 7.64298 12.357C7.01786 11.7319 6.66667 10.8841 6.66667 10Z" fill="black"/>
</svg>
