<svg width="62" height="62" viewBox="0 0 62 62" fill="none" xmlns="http://www.w3.org/2000/svg">
<path d="M62 0H0V62H62V0Z" fill="#B92770"/>
<path d="M30.4431 47.8301C28.0278 46.1361 25.7924 44.1987 23.772 42.0489C21.971 40.1785 20.418 38.0844 19.1511 35.8179C17.8004 33.4625 17.061 30.8063 17.0001 28.0918C16.9943 26.2432 17.3535 24.4117 18.0571 22.7022C18.7606 20.9927 19.7947 19.439 21.1 18.1299C22.3932 16.8184 23.9347 15.778 25.6345 15.0689C27.3343 14.3598 29.1583 13.9963 31.0001 14C32.8418 13.9962 34.6658 14.3595 36.3655 15.0684C38.0653 15.7773 39.6069 16.8176 40.9001 18.1289C42.2054 19.438 43.2395 20.9917 43.9431 22.7012C44.6466 24.4107 45.0058 26.2422 45.0001 28.0908C44.9392 30.8056 44.1991 33.4619 42.8471 35.8169C41.581 38.0834 40.0285 40.1775 38.2281 42.0479C36.2073 44.1973 33.972 46.1346 31.5571 47.8291C31.3922 47.9403 31.198 47.9998 30.9991 48C30.8009 48.0002 30.6072 47.9411 30.4431 47.8301ZM22.517 19.5401C21.3967 20.6639 20.5093 21.9978 19.9056 23.4654C19.3019 24.9329 18.9939 26.505 18.9991 28.0918C18.9991 36.4588 28.5671 43.992 30.9991 45.774C33.0817 44.2427 35.0227 42.5278 36.799 40.6499C38.4743 38.9083 39.9195 36.9593 41.0991 34.8501C42.2846 32.792 42.9377 30.4706 42.9991 28.0962C43.0047 26.5095 42.6969 24.9373 42.0936 23.4698C41.4902 22.0022 40.6031 20.6679 39.4831 19.544C38.3756 18.4192 37.0549 17.5265 35.5983 16.918C34.1418 16.3095 32.5786 15.9974 31.0001 16C29.4218 15.9969 27.8587 16.3082 26.4022 16.916C24.9456 17.5239 23.6249 18.416 22.517 19.5401ZM24.8421 28.062C24.844 26.4292 25.4933 24.8638 26.6477 23.709C27.802 22.5542 29.3672 21.9043 31.0001 21.9019C32.6329 21.9043 34.1981 22.5542 35.3525 23.709C36.5069 24.8638 37.1562 26.4292 37.158 28.062C37.1562 29.6947 36.5068 31.2601 35.3524 32.4146C34.1979 33.569 32.6327 34.2184 31.0001 34.2202C29.3674 34.2184 27.8022 33.569 26.6478 32.4146C25.4933 31.2601 24.844 29.6947 24.8421 28.062ZM26.893 28.062C26.8957 29.1497 27.3293 30.192 28.0989 30.9605C28.8686 31.729 29.9115 32.1611 30.9991 32.1621C32.0857 32.1595 33.127 31.7264 33.8953 30.958C34.6637 30.1897 35.0964 29.1486 35.0991 28.062C35.098 26.9744 34.6659 25.9318 33.8974 25.1621C33.1289 24.3925 32.0867 23.9587 30.9991 23.9561C29.9107 23.9577 28.8674 24.391 28.0978 25.1607C27.3283 25.9304 26.8954 26.9736 26.8941 28.062H26.893Z" fill="white"/>
</svg>
