<svg width="20" height="24" viewBox="0 0 20 24" fill="none" xmlns="http://www.w3.org/2000/svg">
<path d="M9.445 23.831C7.75586 22.653 6.19081 21.3065 4.774 19.812C3.5093 18.5074 2.41828 17.045 1.528 15.461C0.567745 13.798 0.0422185 11.9198 0 10C0 7.34784 1.05357 4.8043 2.92893 2.92893C4.8043 1.05357 7.34784 0 10 0C12.6522 0 15.1957 1.05357 17.0711 2.92893C18.9464 4.8043 20 7.34784 20 10C19.9582 11.9205 19.4327 13.7995 18.472 15.463C17.5818 17.047 16.4907 18.5094 15.226 19.814C13.8091 21.3084 12.2441 22.655 10.555 23.833C10.3907 23.9426 10.1975 24.0012 10 24.0012C9.80245 24.0012 9.60933 23.9426 9.445 23.833V23.831ZM2 10C2 15.414 8.1 20.364 10 21.771C11.9 20.365 18 15.415 18 10C18 7.87827 17.1571 5.84344 15.6569 4.34315C14.1566 2.84285 12.1217 2 10 2C7.87827 2 5.84344 2.84285 4.34315 4.34315C2.84285 5.84344 2 7.87827 2 10ZM6 10C6 9.20887 6.2346 8.43552 6.67412 7.77772C7.11365 7.11992 7.73836 6.60723 8.46927 6.30448C9.20017 6.00173 10.0044 5.92252 10.7804 6.07686C11.5563 6.2312 12.269 6.61216 12.8284 7.17157C13.3878 7.73098 13.7688 8.44372 13.9231 9.21964C14.0775 9.99556 13.9983 10.7998 13.6955 11.5307C13.3928 12.2616 12.8801 12.8864 12.2223 13.3259C11.5645 13.7654 10.7911 14 10 14C8.9397 13.9981 7.92336 13.5761 7.17362 12.8264C6.42387 12.0766 6.00185 11.0603 6 10ZM8 10C8 10.3956 8.1173 10.7822 8.33706 11.1111C8.55682 11.44 8.86918 11.6964 9.23463 11.8478C9.60009 11.9991 10.0022 12.0387 10.3902 11.9616C10.7781 11.8844 11.1345 11.6939 11.4142 11.4142C11.6939 11.1345 11.8844 10.7781 11.9616 10.3902C12.0387 10.0022 11.9991 9.60009 11.8478 9.23463C11.6964 8.86918 11.44 8.55682 11.1111 8.33706C10.7822 8.1173 10.3956 8 10 8C9.46957 8 8.96086 8.21071 8.58579 8.58579C8.21071 8.96086 8 9.46957 8 10Z" fill="#B92770"/>
</svg>
