<svg width="62" height="62" viewBox="0 0 62 62" fill="none" xmlns="http://www.w3.org/2000/svg">
<path d="M62 0H0V62H62V0Z" fill="#B92770"/>
<path d="M17.4192 44.5812C15.6773 42.8687 14.2917 40.8282 13.3425 38.5775C12.3933 36.3267 11.8993 33.9102 11.8888 31.4675C11.8784 29.0248 12.3519 26.6042 13.2818 24.3455C14.2118 22.0867 15.5799 20.0345 17.3072 18.3072C19.0345 16.5799 21.0867 15.2118 23.3455 14.2818C25.6042 13.3519 28.0248 12.8784 30.4675 12.8888C32.9102 12.8993 35.3267 13.3933 37.5775 14.3425C39.8282 15.2917 41.8687 16.6773 43.5812 18.4192C45.3231 20.1317 46.7087 22.1722 47.6579 24.4229C48.6071 26.6737 49.1012 29.0902 49.1116 31.5329C49.122 33.9756 48.6485 36.3962 47.7186 38.6549C46.7886 40.9137 45.4205 42.9659 43.6932 44.6932C41.9659 46.4205 39.9137 47.7886 37.6549 48.7186C35.3962 49.6485 32.9756 50.122 30.5329 50.1116C28.0902 50.1012 25.6737 49.6071 23.4229 48.6579C21.1722 47.7087 19.1317 46.3231 17.4192 44.5812ZM15.3642 31.5002C15.3642 34.4938 16.2519 37.4202 17.9151 39.9093C19.5782 42.3984 21.9422 44.3384 24.7079 45.484C27.4736 46.6297 30.517 46.9294 33.4531 46.3454C36.3892 45.7613 39.0862 44.3198 41.203 42.203C43.3198 40.0862 44.7613 37.3892 45.3454 34.4531C45.9294 31.517 45.6297 28.4736 44.484 25.7079C43.3384 22.9422 41.3984 20.5782 38.9093 18.9151C36.4202 17.2519 33.4938 16.3642 30.5002 16.3642C26.4873 16.369 22.6402 17.9652 19.8027 20.8027C16.9652 23.6402 15.369 27.4873 15.3642 31.5002ZM36.4742 36.3662L29.7492 33.0002C29.4699 32.8615 29.2348 32.6476 29.0703 32.3826C28.9059 32.1177 28.8186 31.8121 28.8182 31.5002V21.4072C28.8182 20.9611 28.9954 20.5333 29.3108 20.2178C29.6263 19.9024 30.0541 19.7252 30.5002 19.7252C30.9463 19.7252 31.3741 19.9024 31.6896 20.2178C32.005 20.5333 32.1822 20.9611 32.1822 21.4072V30.4592L37.9822 33.3592C38.3213 33.5285 38.5933 33.8074 38.7539 34.1508C38.9146 34.4941 38.9545 34.8816 38.8672 35.2505C38.7798 35.6193 38.5704 35.9478 38.2729 36.1827C37.9754 36.4175 37.6072 36.5449 37.2282 36.5442C36.9663 36.5452 36.708 36.4842 36.4742 36.3662Z" fill="white"/>
</svg>
