<svg width="425" height="30" viewBox="0 0 425 30" fill="none" xmlns="http://www.w3.org/2000/svg">
<path fill-rule="evenodd" clip-rule="evenodd" d="M411.056 9.91605C413.194 9.81605 415.527 10.694 415.041 13.316L413.68 19.635H410.57L410.764 18.566C409.112 20.315 404.835 20.218 405.516 16.331C406.002 13.998 408.335 13.318 411.834 13.318C412.028 12.249 411.348 12.054 410.182 12.054C409.154 12.1576 408.142 12.3859 407.169 12.734L407.461 10.499C408.634 10.1712 409.839 9.97562 411.056 9.91605ZM411.25 16.428C411.25 16.136 411.35 15.748 411.444 15.845H410.666C409.986 15.845 409.111 15.845 408.722 16.428C408.333 17.206 408.916 17.594 409.597 17.594C410.375 17.497 411.056 17.206 411.25 16.428ZM417.665 7.00005H420.872L418.248 19.635H415.138L417.665 7.00005ZM403.183 7.00005C404.835 7.00005 406.876 9.13805 406.39 11.957C406.19 13.0582 405.597 14.0493 404.721 14.746C403.845 15.4427 402.746 15.7977 401.628 15.745H399.195L398.32 19.633H394.92L397.447 6.99805L403.183 7.00005ZM403.083 11.374C403.145 11.1979 403.161 11.0088 403.13 10.8247C403.099 10.6405 403.021 10.4674 402.904 10.3215C402.788 10.1756 402.636 10.0619 402.463 9.99093C402.29 9.91999 402.102 9.89423 401.917 9.91605H400.267L399.587 12.832H401.142C401.582 12.8389 402.011 12.6994 402.363 12.4355C402.715 12.1716 402.969 11.7982 403.086 11.374H403.083ZM380.732 9.91605C382.87 9.81605 385.3 10.694 384.814 13.316L383.453 19.635H380.343L380.537 18.566C378.885 20.315 374.705 20.218 375.386 16.331C375.872 13.998 378.205 13.318 381.606 13.318C381.8 12.249 381.12 12.054 379.954 12.054C378.924 12.1457 377.91 12.3743 376.941 12.734L377.233 10.499C378.371 10.1617 379.546 9.9659 380.732 9.91605ZM381.024 16.428C381.024 16.136 381.124 15.748 381.218 15.845H380.44C379.857 15.845 378.982 15.845 378.593 16.428C378.107 17.206 378.693 17.594 379.371 17.594C380.149 17.497 380.829 17.206 381.023 16.428H381.024ZM386.078 9.91605H389.188L389.674 15.359L392.784 9.91605H395.995L388.604 23.523H385.104L387.341 19.445L386.078 9.91605ZM373.054 7.00005C374.706 7.00005 376.747 9.13805 376.164 11.957C375.964 13.0584 375.37 14.0496 374.494 14.7463C373.618 15.4431 372.519 15.798 371.401 15.745H368.971L368.095 19.635H364.695L367.222 7.00005H373.054ZM372.954 11.374C373.016 11.1985 373.032 11.0102 373.001 10.8267C372.97 10.6432 372.893 10.4705 372.777 10.3249C372.661 10.1792 372.51 10.0653 372.339 9.99378C372.167 9.92229 371.98 9.89554 371.795 9.91605H370.138L369.458 12.832H371.013C371.452 12.8387 371.882 12.6991 372.234 12.4352C372.585 12.1713 372.839 11.798 372.956 11.374H372.954ZM421.554 9.04105V7.68105H421.068V7.48705H422.332V7.68105H421.846V9.04504L421.554 9.04105ZM422.526 9.04105V7.48605H422.818L423.207 8.55505C423.218 8.62897 423.253 8.69717 423.307 8.74905C423.307 8.64905 423.307 8.64905 423.407 8.45705L423.796 7.38805H424.088V8.94505H423.885V7.58405L423.395 8.94505H423.103L422.617 7.58405V8.94505H422.517L422.526 9.04105Z" fill="#727174"/>
<path d="M308.819 27.774C308.81 27.9346 308.849 28.0944 308.93 28.2329C309.012 28.3713 309.134 28.4823 309.279 28.5515C309.424 28.6208 309.587 28.6453 309.746 28.6218C309.905 28.5983 310.054 28.528 310.173 28.4197C310.292 28.3115 310.376 28.1702 310.414 28.014C310.453 27.8578 310.444 27.6936 310.388 27.5425C310.333 27.3914 310.234 27.2601 310.104 27.1655C309.974 27.0708 309.819 27.0171 309.658 27.011C309.553 27.0058 309.447 27.0214 309.348 27.0569C309.249 27.0925 309.158 27.1473 309.08 27.2182C309.002 27.2891 308.939 27.3747 308.894 27.4701C308.849 27.5655 308.824 27.6688 308.819 27.774ZM310.985 26.436V29.111H310.403V28.786C310.304 28.9141 310.175 29.0166 310.028 29.0848C309.881 29.153 309.72 29.185 309.558 29.178C309.198 29.1588 308.86 29.0024 308.612 28.741C308.364 28.4797 308.226 28.1332 308.226 27.773C308.226 27.4128 308.364 27.0664 308.612 26.805C308.86 26.5436 309.198 26.3872 309.558 26.368C309.72 26.3611 309.881 26.393 310.028 26.4613C310.175 26.5295 310.304 26.6319 310.403 26.76V26.435L310.985 26.436ZM330.641 27.774C330.632 27.9346 330.671 28.0944 330.752 28.2329C330.834 28.3713 330.956 28.4823 331.101 28.5515C331.246 28.6208 331.409 28.6453 331.568 28.6218C331.727 28.5983 331.876 28.528 331.995 28.4197C332.114 28.3115 332.198 28.1702 332.236 28.014C332.275 27.8578 332.266 27.6936 332.21 27.5425C332.155 27.3914 332.056 27.2601 331.926 27.1655C331.796 27.0708 331.641 27.0171 331.48 27.011C331.375 27.0058 331.269 27.0214 331.17 27.0569C331.071 27.0925 330.98 27.1473 330.902 27.2182C330.824 27.2891 330.761 27.3747 330.716 27.4701C330.671 27.5655 330.646 27.6688 330.641 27.774ZM332.807 25.361V29.11H332.224V28.785C332.125 28.9131 331.996 29.0156 331.849 29.0838C331.702 29.152 331.541 29.184 331.379 29.177C331.019 29.1578 330.681 29.0014 330.433 28.74C330.185 28.4787 330.047 28.1322 330.047 27.772C330.047 27.4118 330.185 27.0654 330.433 26.804C330.681 26.5426 331.019 26.3862 331.379 26.367C331.541 26.3601 331.702 26.392 331.849 26.4603C331.996 26.5285 332.125 26.6309 332.224 26.759V25.359L332.807 25.361ZM318.207 26.889C318.027 26.883 317.852 26.9475 317.719 27.0688C317.586 27.19 317.506 27.3584 317.496 27.538H318.884C318.88 27.3621 318.806 27.195 318.679 27.0735C318.551 26.952 318.381 26.886 318.205 26.89L318.207 26.889ZM318.218 26.367C318.396 26.3681 318.571 26.406 318.733 26.4785C318.896 26.551 319.041 26.6564 319.161 26.788C319.28 26.9196 319.371 27.0746 319.427 27.2431C319.483 27.4117 319.504 27.5901 319.488 27.767C319.488 27.845 319.482 27.918 319.476 27.991H317.488C317.51 28.1827 317.606 28.3583 317.755 28.4805C317.905 28.6027 318.096 28.6621 318.288 28.646C318.571 28.6415 318.845 28.543 319.066 28.366L319.351 28.797C319.043 29.0533 318.651 29.1868 318.251 29.172C317.887 29.1643 317.54 29.0155 317.283 28.7569C317.026 28.4983 316.88 28.1502 316.875 27.7859C316.87 27.4215 317.006 27.0695 317.256 26.8039C317.505 26.5383 317.848 26.3799 318.212 26.362L318.218 26.367ZM325.242 27.767C325.233 27.9276 325.272 28.0874 325.353 28.2259C325.435 28.3643 325.557 28.4753 325.702 28.5445C325.847 28.6138 326.01 28.6383 326.169 28.6148C326.328 28.5913 326.477 28.521 326.596 28.4127C326.715 28.3045 326.799 28.1632 326.837 28.007C326.876 27.8508 326.867 27.6866 326.811 27.5355C326.756 27.3844 326.657 27.2531 326.527 27.1585C326.397 27.0638 326.242 27.0101 326.081 27.004C325.976 26.9988 325.87 27.0144 325.771 27.0499C325.672 27.0855 325.581 27.1403 325.503 27.2112C325.425 27.2821 325.362 27.3677 325.317 27.4631C325.272 27.5585 325.247 27.6618 325.242 27.767ZM327.408 26.429V29.11H326.824V28.785C326.725 28.9131 326.596 29.0155 326.449 29.0837C326.302 29.1519 326.141 29.1839 325.979 29.177C325.619 29.1578 325.281 29.0014 325.033 28.74C324.785 28.4787 324.647 28.1322 324.647 27.772C324.647 27.4118 324.785 27.0654 325.033 26.804C325.281 26.5426 325.619 26.3862 325.979 26.367C326.141 26.3602 326.302 26.3922 326.449 26.4604C326.596 26.5286 326.725 26.631 326.824 26.759V26.434L327.408 26.429ZM321.957 27.767C321.95 27.5789 321.982 27.3915 322.052 27.2166C322.121 27.0417 322.227 26.8833 322.361 26.7514C322.495 26.6196 322.656 26.5174 322.832 26.4512C323.008 26.385 323.196 26.3563 323.384 26.367C323.733 26.3495 324.076 26.4633 324.346 26.686L324.067 27.156C323.866 27.0024 323.62 26.9179 323.367 26.915C323.149 26.928 322.943 27.0238 322.793 27.183C322.643 27.3422 322.56 27.5527 322.56 27.7715C322.56 27.9903 322.643 28.2008 322.793 28.36C322.943 28.5192 323.149 28.6151 323.367 28.628C323.62 28.6252 323.866 28.5407 324.067 28.387L324.346 28.857C324.076 29.0798 323.733 29.1936 323.384 29.176C323.196 29.1868 323.008 29.1581 322.832 29.0919C322.656 29.0257 322.495 28.9234 322.361 28.7916C322.227 28.6598 322.121 28.5014 322.052 28.3265C321.982 28.1516 321.95 27.9641 321.957 27.776V27.767ZM329.457 26.367C329.598 26.3676 329.738 26.3923 329.871 26.44L329.692 26.988C329.576 26.9419 329.453 26.9191 329.328 26.921C328.948 26.921 328.757 27.167 328.757 27.61V29.11H328.174V26.435H328.75V26.76C328.821 26.6377 328.924 26.5367 329.048 26.4678C329.171 26.3988 329.311 26.3644 329.453 26.368L329.457 26.367ZM313.865 26.649L313.612 27.119C313.358 26.9731 313.071 26.8943 312.778 26.89C312.459 26.89 312.269 27.008 312.269 27.203C312.269 27.382 312.469 27.433 312.723 27.466L312.997 27.506C313.579 27.59 313.932 27.836 313.932 28.306C313.932 28.815 313.484 29.179 312.712 29.179C312.299 29.1902 311.894 29.0686 311.555 28.832L311.829 28.379C312.086 28.5697 312.399 28.6683 312.719 28.659C313.119 28.659 313.329 28.541 313.329 28.334C313.329 28.183 313.178 28.099 312.859 28.054L312.584 28.015C311.984 27.931 311.661 27.662 311.661 27.226C311.661 26.694 312.097 26.37 312.775 26.37C313.156 26.3579 313.533 26.455 313.861 26.65L313.865 26.649ZM321.37 26.369C321.511 26.3695 321.652 26.3942 321.785 26.442L321.606 26.99C321.49 26.9439 321.367 26.9211 321.242 26.923C320.862 26.923 320.671 27.169 320.671 27.612V29.112H320.089V26.437H320.666V26.762C320.737 26.6397 320.839 26.5386 320.963 26.4694C321.086 26.4003 321.226 26.3656 321.367 26.369H321.37ZM316.406 26.436V26.968H315.455V28.177C315.455 28.445 315.55 28.625 315.841 28.625C316.023 28.619 316.2 28.567 316.356 28.474L316.524 28.974C316.306 29.1103 316.053 29.182 315.796 29.181C315.108 29.181 314.867 28.811 314.867 28.191V26.971H314.324V26.439H314.866V25.627H315.454V26.439L316.406 26.436ZM307.706 29.111H307.117V27.622C307.117 27.168 306.927 26.917 306.53 26.917C306.438 26.9128 306.346 26.9287 306.261 26.9637C306.176 26.9988 306.099 27.0521 306.037 27.1198C305.974 27.1876 305.927 27.2682 305.9 27.356C305.872 27.4438 305.863 27.5366 305.875 27.628V29.111H305.287V27.622C305.287 27.168 305.087 26.917 304.705 26.917C304.613 26.9119 304.52 26.9272 304.435 26.9619C304.349 26.9967 304.272 27.0499 304.21 27.1179C304.147 27.1859 304.1 27.2669 304.073 27.3551C304.045 27.4433 304.037 27.5365 304.05 27.628V29.111H303.463V26.436H304.045V26.766C304.129 26.6369 304.246 26.5321 304.383 26.4619C304.521 26.3917 304.674 26.3587 304.828 26.366C305.005 26.3585 305.18 26.3987 305.335 26.4825C305.491 26.5663 305.621 26.6905 305.712 26.842C305.812 26.6859 305.952 26.5593 306.117 26.4756C306.282 26.3919 306.467 26.354 306.652 26.366C306.793 26.3584 306.934 26.3807 307.066 26.4316C307.198 26.4825 307.317 26.5607 307.417 26.6611C307.516 26.7616 307.593 26.8819 307.643 27.0143C307.692 27.1467 307.713 27.288 307.704 27.429L307.706 29.111ZM318.949 3.83303C318.872 3.76903 318.842 3.72103 318.849 3.67903C320.378 2.66911 322.151 2.09212 323.982 2.00938C325.812 1.92663 327.63 2.3412 329.244 3.20906C330.857 4.07692 332.206 5.36564 333.145 6.93833C334.085 8.51101 334.582 10.3089 334.582 12.141C334.582 13.9731 334.085 15.771 333.145 17.3437C332.206 18.9164 330.857 20.2051 329.244 21.073C327.63 21.9408 325.812 22.3554 323.982 22.2727C322.151 22.1899 320.378 21.6129 318.849 20.603C318.869 20.5632 318.899 20.5289 318.935 20.503C319.33 20.1795 319.697 19.8246 320.035 19.442C320.936 18.4278 321.643 17.2571 322.121 15.988C322.44 15.1514 322.652 14.2778 322.753 13.388C322.969 11.4227 322.653 9.43552 321.838 7.63402C321.175 6.16461 320.187 4.86492 318.949 3.83303ZM314.316 12.127C314.315 10.5911 314.663 9.07503 315.332 7.6927C316.001 6.31037 316.976 5.09776 318.181 4.14603C318.211 4.14582 318.241 4.15154 318.269 4.16287C318.296 4.1742 318.322 4.1909 318.343 4.21203C319.503 5.15548 320.442 6.34119 321.095 7.68603C321.513 8.54367 321.805 9.45706 321.962 10.398C322.073 11.0275 322.124 11.666 322.115 12.305C322.089 13.7945 321.738 15.2603 321.088 16.6007C320.438 17.9412 319.504 19.124 318.351 20.067C318.314 20.1025 318.268 20.1273 318.218 20.139C317.002 19.1877 316.018 17.9718 315.342 16.5835C314.666 15.1953 314.315 13.6712 314.316 12.127ZM301.861 11.391C301.995 9.62584 302.588 7.92631 303.581 6.46079C304.574 4.99528 305.933 3.81465 307.522 3.03589C309.112 2.25713 310.878 1.90726 312.644 2.02094C314.411 2.13463 316.117 2.70792 317.594 3.68402C317.6 3.72602 317.56 3.76603 317.494 3.81703C317.312 3.96703 317.133 4.12303 316.965 4.28903C314.902 6.28931 313.703 9.01669 313.623 11.889C313.602 12.7371 313.682 13.5847 313.861 14.414C314.027 15.2037 314.28 15.9727 314.615 16.707C315.285 18.1783 316.276 19.4809 317.515 20.519C317.544 20.541 317.568 20.569 317.586 20.601C316.056 21.61 314.282 22.1863 312.451 22.2689C310.62 22.3516 308.801 21.9374 307.187 21.0704C305.572 20.2033 304.222 18.9157 303.28 17.3439C302.337 15.7721 301.838 13.9747 301.834 12.142C301.834 11.91 301.843 11.679 301.858 11.451C301.861 11.429 301.861 11.41 301.861 11.391Z" fill="#727174"/>
<path d="M225.811 25.4402C225.666 25.4402 225.522 25.4115 225.387 25.3559C225.253 25.3002 225.131 25.2187 225.028 25.1159C224.926 25.0131 224.844 24.891 224.789 24.7567C224.733 24.6224 224.705 24.4785 224.705 24.3332V17.6332C224.705 17.4878 224.733 17.3439 224.789 17.2096C224.844 17.0753 224.926 16.9533 225.028 16.8505C225.131 16.7477 225.253 16.6661 225.387 16.6105C225.522 16.5548 225.666 16.5262 225.811 16.5262H232.248C232.403 16.5249 232.557 16.5572 232.699 16.6206C232.841 16.6841 232.968 16.7774 233.071 16.8942L234.234 18.1862L235.446 16.8792C235.55 16.7673 235.675 16.6783 235.815 16.6177C235.955 16.5571 236.106 16.5263 236.259 16.5272H241.373C242.239 16.4856 243.097 16.6991 243.843 17.1412C243.933 16.9584 244.072 16.8042 244.244 16.6958C244.417 16.5874 244.616 16.529 244.82 16.5272H248.52C249.36 16.4661 250.202 16.6192 250.967 16.9722C251.047 17.0192 251.103 17.0822 251.179 17.1362C251.27 16.9543 251.409 16.8011 251.581 16.6937C251.754 16.5862 251.953 16.5285 252.156 16.5272H257.497C257.693 16.5288 257.885 16.5834 258.052 16.6851C258.22 16.7869 258.357 16.932 258.449 17.1052C259.076 16.7033 259.811 16.5017 260.556 16.5272H263.763C263.99 16.5278 264.212 16.5993 264.397 16.7318C264.581 16.8643 264.72 17.0511 264.794 17.2662C265.451 16.7589 266.264 16.4975 267.094 16.5272H270.301C270.446 16.527 270.59 16.5556 270.725 16.6112C270.859 16.6668 270.981 16.7483 271.084 16.8511C271.187 16.9539 271.268 17.076 271.324 17.2104C271.379 17.3448 271.408 17.4888 271.408 17.6342V19.0612C271.408 19.2459 271.361 19.4278 271.273 19.59C271.185 19.7523 271.057 19.8899 270.902 19.9902C270.914 20.0002 270.926 20.0109 270.937 20.0222C271.212 20.3143 271.425 20.6595 271.563 21.0368C271.7 21.414 271.76 21.8153 271.737 22.2162C271.737 24.2312 270.385 25.4362 268.118 25.4362H265.001C264.784 25.4366 264.572 25.373 264.391 25.2532C264.21 25.1335 264.069 24.963 263.985 24.7632C263.273 25.2327 262.431 25.468 261.579 25.4362H258.461C258.294 25.4338 258.129 25.3927 257.981 25.3162C257.832 25.3922 257.667 25.4333 257.5 25.4362H252.156C251.986 25.433 251.819 25.3902 251.668 25.3112C251.517 25.3918 251.35 25.4347 251.179 25.4362H249.574C249.282 25.4362 249.001 25.3205 248.794 25.1144C248.586 24.9083 248.469 24.6285 248.467 24.3362V23.3612C248.467 23.2662 248.467 23.1232 248.467 23.0032C248.392 23.0032 248.288 22.9932 248.141 22.9932H247.541V24.3362C247.54 24.6287 247.422 24.9088 247.215 25.115C247.007 25.3212 246.726 25.4367 246.434 25.4362H244.821C244.528 25.4367 244.248 25.3212 244.04 25.115C243.832 24.9088 243.715 24.6287 243.714 24.3362V22.6362C242.968 23.0397 242.127 23.2333 241.28 23.1962H240.39V24.3392C240.389 24.6317 240.271 24.9118 240.064 25.118C239.856 25.3242 239.575 25.4397 239.283 25.4392H236.172C236.016 25.4396 235.861 25.4068 235.718 25.3428C235.576 25.2788 235.448 25.1852 235.345 25.0682L234.185 23.7682L232.963 25.0902C232.86 25.2025 232.734 25.2921 232.595 25.3534C232.455 25.4147 232.304 25.4463 232.152 25.4462L225.811 25.4402ZM252.156 24.3332H257.497V22.9442L253.748 22.9362V21.6062H257.406V20.2382H253.749V19.0192H257.498V17.6352H252.156V24.3332ZM248.14 21.8882C248.726 21.8882 249.082 21.9442 249.312 22.1832C249.612 22.4952 249.573 23.0932 249.573 23.4952V24.3342H251.179V23.0052C251.228 22.5798 251.135 22.1501 250.914 21.7832C250.714 21.5243 250.443 21.3288 250.134 21.2202C250.48 21.0704 250.773 20.8201 250.975 20.5019C251.177 20.1837 251.279 19.812 251.268 19.4352C251.288 19.1346 251.221 18.8347 251.075 18.5713C250.929 18.3078 250.71 18.0918 250.445 17.9492C249.839 17.6858 249.177 17.5779 248.519 17.6352H244.819V24.3352H246.428V21.8882H248.14ZM236.173 24.3302H239.284V22.0832H241.284C242.684 22.0832 244.072 21.7002 244.072 19.8422C244.072 17.9842 242.643 17.6312 241.372 17.6312H236.256L234.219 19.8312L232.247 17.6312H225.811V24.3312H232.156L234.205 22.1152L236.173 24.3302ZM265.003 24.3302H268.121C269.73 24.3382 270.629 23.6652 270.629 22.2212C270.651 21.9642 270.62 21.7053 270.537 21.461C270.455 21.2166 270.323 20.992 270.149 20.8012C269.63 20.3966 268.976 20.204 268.321 20.2622L267.461 20.2372C267.25 20.2475 267.039 20.2218 266.837 20.1612C266.743 20.1227 266.662 20.0597 266.601 19.979C266.541 19.8982 266.503 19.8026 266.492 19.7022C266.481 19.6018 266.497 19.5002 266.539 19.4082C266.58 19.3162 266.646 19.2371 266.729 19.1792C266.925 19.073 267.15 19.0304 267.372 19.0572H270.307V17.6262H267.1C265.42 17.6262 264.811 18.6462 264.811 19.6202C264.811 21.7382 266.686 21.6432 268.182 21.6922C268.384 21.671 268.586 21.7236 268.752 21.8402C268.815 21.8949 268.865 21.9629 268.899 22.0393C268.933 22.1157 268.949 22.1987 268.947 22.2822C268.947 22.3641 268.931 22.4452 268.899 22.5205C268.867 22.5958 268.819 22.6638 268.76 22.7202C268.572 22.8557 268.339 22.915 268.109 22.8862H265.003V24.3302ZM258.462 24.3302H261.58C263.189 24.3382 264.086 23.6652 264.086 22.2212C264.109 21.9641 264.078 21.705 263.995 21.4606C263.912 21.2161 263.779 20.9915 263.605 20.8012C263.086 20.3971 262.434 20.2045 261.779 20.2622L260.919 20.2372C260.708 20.2476 260.497 20.2219 260.295 20.1612C260.201 20.1232 260.119 20.0605 260.058 19.9797C259.997 19.8989 259.959 19.8031 259.948 19.7024C259.937 19.6017 259.953 19.4999 259.995 19.4078C260.037 19.3157 260.103 19.2367 260.187 19.1792C260.383 19.0732 260.607 19.0306 260.829 19.0572H263.766V17.6262H260.556C258.876 17.6262 258.267 18.6462 258.267 19.6202C258.267 21.7382 260.143 21.6432 261.638 21.6922C261.84 21.6715 262.042 21.724 262.208 21.8402C262.271 21.8949 262.321 21.9629 262.355 22.0393C262.389 22.1157 262.405 22.1987 262.403 22.2822C262.403 22.3641 262.387 22.4452 262.355 22.5205C262.323 22.5958 262.275 22.6638 262.216 22.7202C262.027 22.8556 261.794 22.9149 261.563 22.8862H258.463L258.462 24.3302ZM235.232 20.9992L237.691 18.3592V23.7292L235.232 20.9992ZM227.409 22.9422V21.6002H230.922V20.2372H227.41V19.0202H231.421L233.172 20.9692L231.344 22.9372L227.409 22.9422ZM239.286 20.7242V19.0182H241.373C241.952 19.0182 242.35 19.2532 242.352 19.8422C242.354 20.4312 241.969 20.7242 241.352 20.7242H239.286ZM246.431 20.5242V19.0242H248.403C248.664 19.0003 248.926 19.0419 249.167 19.1452C249.274 19.2035 249.361 19.2908 249.421 19.3969C249.48 19.5031 249.507 19.6238 249.501 19.7452C249.507 19.8721 249.48 19.9985 249.422 20.1115C249.364 20.2246 249.277 20.3203 249.17 20.3892C248.922 20.5035 248.648 20.5504 248.376 20.5252L246.431 20.5242ZM224.956 13.9102C224.742 13.91 224.532 13.8478 224.353 13.731C224.173 13.6142 224.032 13.4479 223.945 13.2522L223.735 12.7772V12.8002C223.735 12.9454 223.706 13.0891 223.651 13.2233C223.595 13.3574 223.514 13.4793 223.411 13.5819C223.308 13.6845 223.186 13.7659 223.052 13.8213C222.918 13.8768 222.774 13.9053 222.629 13.9052H219.369C219.15 13.9063 218.935 13.8419 218.753 13.7204C218.571 13.5989 218.429 13.4258 218.346 13.2232L218.013 12.4142H216.156L215.818 13.2282C215.734 13.4295 215.593 13.6016 215.411 13.7227C215.23 13.8439 215.017 13.9088 214.799 13.9092H213.062C212.878 13.9106 212.698 13.866 212.536 13.7797C212.374 13.6933 212.236 13.5678 212.135 13.4147C212.034 13.2615 211.973 13.0856 211.958 12.9028C211.942 12.72 211.972 12.5362 212.046 12.3682L214.911 5.67017C214.996 5.47137 215.138 5.30198 215.319 5.18291C215.5 5.06385 215.711 5.00032 215.928 5.00017H218.305C218.521 5.0003 218.732 5.06372 218.913 5.18261C219.094 5.30149 219.235 5.47064 219.321 5.66917L219.921 7.06917V6.10717C219.921 5.96176 219.949 5.81775 220.005 5.68338C220.06 5.54902 220.142 5.42693 220.245 5.32411C220.348 5.22129 220.47 5.13975 220.604 5.08417C220.738 5.02858 220.882 5.00004 221.028 5.00017H223.641C223.851 5.0015 224.057 5.06265 224.234 5.1765C224.411 5.29035 224.552 5.4522 224.641 5.64317L225.688 7.91717L226.644 5.67617C226.728 5.4768 226.869 5.30646 227.048 5.1863C227.228 5.06613 227.44 5.00141 227.656 5.00017H230.324C230.539 5.00577 230.748 5.0754 230.924 5.20017C231.099 5.07512 231.308 5.00547 231.524 5.00017H236.87C237.067 5.005 237.259 5.06418 237.424 5.17117C237.589 5.06501 237.78 5.00589 237.977 5.00017H241.656C242.516 4.92422 243.381 5.08647 244.156 5.46917C244.225 5.51696 244.292 5.56871 244.356 5.62417C244.445 5.43921 244.583 5.28277 244.756 5.1725C244.929 5.06223 245.13 5.00254 245.335 5.00017H246.97C247.232 5.00221 247.484 5.09827 247.681 5.27083C247.877 5.4434 248.006 5.68095 248.042 5.94017C248.893 5.26622 249.963 4.93135 251.047 5.00017H252.593C252.832 4.99952 253.065 5.07675 253.256 5.22017C253.446 5.07737 253.678 5.00017 253.916 5.00017H256.316C256.532 4.99967 256.744 5.06297 256.924 5.18214C257.105 5.30131 257.246 5.47106 257.331 5.67017L257.919 7.04517V6.10517C257.919 5.81236 258.036 5.5316 258.242 5.32446C258.449 5.11732 258.73 5.0007 259.023 5.00017H261.463C261.653 5.00076 261.84 5.05016 262.006 5.14366C262.171 5.23717 262.31 5.37163 262.409 5.53417L263.169 6.79617V6.10617C263.169 5.96084 263.198 5.81694 263.253 5.68269C263.309 5.54844 263.39 5.42647 263.493 5.32376C263.596 5.22104 263.718 5.1396 263.852 5.08407C263.987 5.02855 264.131 5.00004 264.276 5.00017H265.914C266.207 5.00043 266.488 5.11704 266.696 5.3244C266.903 5.53176 267.02 5.81292 267.02 6.10617V12.8002C267.021 12.9458 266.992 13.0901 266.937 13.2248C266.882 13.3595 266.8 13.482 266.698 13.5851C266.595 13.6883 266.473 13.7701 266.338 13.8259C266.204 13.8817 266.06 13.9103 265.914 13.9102H263.648C263.457 13.9101 263.27 13.861 263.104 13.7674C262.938 13.6739 262.799 13.5391 262.7 13.3762L261.718 11.7472V12.8002C261.719 12.9458 261.69 13.0901 261.635 13.2248C261.58 13.3595 261.498 13.482 261.396 13.5851C261.293 13.6883 261.171 13.7701 261.036 13.8259C260.902 13.8817 260.758 13.9103 260.612 13.9102H257.356C257.138 13.9104 256.924 13.8459 256.742 13.7249C256.561 13.6038 256.419 13.4317 256.335 13.2302L255.997 12.4162H254.151L253.825 13.2162C253.744 13.4204 253.603 13.5955 253.421 13.719C253.239 13.8426 253.025 13.9088 252.805 13.9092H250.93C249.891 13.9454 248.869 13.6316 248.03 13.0182C247.983 13.2672 247.852 13.4922 247.657 13.6547C247.463 13.8173 247.218 13.9072 246.965 13.9092H245.334C245.159 13.9053 244.987 13.8593 244.834 13.7752C244.681 13.8599 244.509 13.9059 244.334 13.9092H242.723C242.431 13.9089 242.15 13.7932 241.943 13.5871C241.736 13.3811 241.618 13.1015 241.616 12.8092L241.61 11.9642V11.8172C241.61 11.7272 241.61 11.5922 241.605 11.4792C241.532 11.4792 241.433 11.4702 241.294 11.4702H240.682V12.8052C240.682 13.0985 240.565 13.3798 240.358 13.5872C240.151 13.7946 239.869 13.9112 239.576 13.9112H237.976C237.779 13.906 237.587 13.8468 237.421 13.7402C237.256 13.8471 237.064 13.9063 236.867 13.9112H231.521C231.305 13.9054 231.097 13.8358 230.921 13.7112C230.745 13.8356 230.536 13.9051 230.321 13.9112H228.687C228.542 13.912 228.398 13.8841 228.264 13.8292C228.13 13.7742 228.008 13.6933 227.905 13.5911C227.802 13.4889 227.721 13.3674 227.665 13.2335C227.61 13.0997 227.581 12.9561 227.581 12.8112V12.7792L227.369 13.2532C227.283 13.4496 227.141 13.6166 226.962 13.7337C226.782 13.8508 226.572 13.9128 226.358 13.9122L224.956 13.9102ZM263.647 12.8002H265.915V6.10017H264.276V10.7702L261.463 6.10017H259.023V12.4392L256.315 6.10017H253.915L251.656 11.3712H250.939C250.536 11.406 250.135 11.2819 249.823 11.0252C249.489 10.5727 249.332 10.0142 249.381 9.45417C249.341 8.90882 249.504 8.368 249.84 7.93617C250.004 7.78399 250.199 7.66935 250.411 7.60027C250.624 7.53118 250.849 7.50931 251.071 7.53617H252.586V6.10017H251.04C250.603 6.05894 250.162 6.10681 249.744 6.24088C249.327 6.37495 248.94 6.59244 248.609 6.88017C248.301 7.23929 248.067 7.65563 247.919 8.10536C247.772 8.5551 247.715 9.02941 247.752 9.50117C247.711 9.9636 247.766 10.4295 247.914 10.8696C248.061 11.3097 248.299 11.7144 248.611 12.0582C249.263 12.5856 250.09 12.8497 250.927 12.7982H252.802L253.402 11.3042H256.729L257.356 12.8002H260.613V7.77617L263.647 12.8002ZM245.335 12.8002H246.97V6.10017H245.335V12.8002ZM237.974 12.8002H239.574V10.3662H241.29C241.494 10.3348 241.702 10.3439 241.902 10.393C242.102 10.442 242.291 10.5301 242.457 10.6522C242.685 11.0447 242.774 11.5028 242.709 11.9522L242.717 12.7972H244.332V11.4872C244.384 11.0596 244.29 10.627 244.066 10.2592C243.856 10.0044 243.582 9.80981 243.273 9.69517C243.618 9.54457 243.91 9.29408 244.112 8.97594C244.313 8.65781 244.415 8.28662 244.404 7.91017C244.425 7.61118 244.36 7.31232 244.217 7.0492C244.073 6.78608 243.857 6.56981 243.594 6.42617C242.988 6.14981 242.319 6.03938 241.656 6.10617H237.974V12.8002ZM231.519 12.8002H236.866V11.4172H233.12V10.0792H236.778V8.70717H233.12V7.50017H236.866V6.10017H231.52L231.519 12.8002ZM228.685 12.8002H230.326V6.10017H227.656L225.735 10.6482L223.64 6.10017H221.026V12.4472L218.302 6.10017H215.926L213.056 12.8002H214.796L215.418 11.3062H218.756L219.368 12.8002H222.626V7.55217L224.956 12.8002H226.356L228.677 7.55417L228.685 12.8002ZM250.618 8.72917C250.521 8.95825 250.477 9.20664 250.491 9.45517C250.471 9.72154 250.515 9.98876 250.618 10.2352C250.721 10.2585 250.827 10.2693 250.933 10.2672L251.628 8.64617H251.079C250.703 8.64617 250.664 8.68417 250.618 8.72917ZM253.98 9.91317L255.08 7.24417L256.191 9.91317H253.98ZM215.992 9.91317L217.079 7.24417L218.179 9.91317H215.992ZM239.576 8.98817V7.50017H241.548C241.807 7.48046 242.067 7.52191 242.307 7.62117C242.415 7.67549 242.505 7.76075 242.565 7.86615C242.625 7.97154 242.652 8.09231 242.643 8.21317C242.652 8.33927 242.625 8.46533 242.567 8.57752C242.509 8.68971 242.421 8.7837 242.313 8.84917C242.066 8.96561 241.793 9.01296 241.522 8.98617L239.576 8.98817Z" fill="#727174"/>
<path fill-rule="evenodd" clip-rule="evenodd" d="M176.899 17.6979H176.058C176.023 17.6953 175.987 17.6984 175.953 17.7069C175.944 17.7098 175.937 17.7154 175.931 17.7229C175.916 17.7115 175.899 17.7032 175.88 17.6988C175.862 17.6943 175.843 17.6937 175.824 17.6969H174.846C174.828 17.6937 174.809 17.6943 174.79 17.6986C174.772 17.7029 174.755 17.7108 174.74 17.7219L174.733 17.7119C174.701 17.7009 174.667 17.6968 174.633 17.6999C174.511 17.6999 174.389 17.6999 174.267 17.6999C174.183 17.6999 174.176 17.6869 174.204 17.6089C174.28 17.4029 174.35 17.1949 174.428 16.9889C174.442 16.9593 174.449 16.9267 174.447 16.8939V16.8869C174.479 16.8699 174.485 16.8339 174.496 16.8039C174.621 16.4569 174.748 16.1119 174.873 15.7649C174.883 15.7379 174.898 15.7099 174.873 15.6819C174.908 15.6819 174.912 15.6479 174.92 15.6239C175.132 15.0369 175.351 14.4529 175.551 13.8619C175.563 13.8372 175.567 13.81 175.565 13.7829C175.602 13.7739 175.603 13.7379 175.614 13.7109C175.783 13.2539 175.947 12.7959 176.114 12.3379C176.12 12.3213 176.124 12.3037 176.124 12.2859C176.13 12.3039 176.133 12.3219 176.137 12.3399C176.154 12.4546 176.182 12.5674 176.22 12.6769V12.6839C176.21 12.708 176.21 12.7349 176.22 12.7589C176.231 12.8239 176.244 12.8879 176.258 12.9519C176.539 14.2979 176.82 15.6439 177.102 16.9899C177.153 17.2319 177.194 17.4759 177.26 17.7159C177.264 17.7156 177.268 17.7156 177.272 17.7159C177.235 17.6984 177.195 17.6893 177.154 17.6893C177.113 17.6893 177.072 17.6984 177.035 17.7159C177.027 17.7087 177.019 17.703 177.009 17.6989C176.974 17.6915 176.939 17.6888 176.903 17.6909M181.857 22.8339C181.722 22.1899 181.589 21.5459 181.457 20.9019C181.357 20.4389 181.257 19.9769 181.164 19.5139C181.164 19.5112 181.164 19.5086 181.164 19.5059L179.917 13.5289C179.554 11.7956 179.193 10.0622 178.833 8.32891C178.82 8.26891 178.802 8.24991 178.739 8.24991H175.578C175.527 8.24432 175.475 8.24873 175.425 8.26291C175.157 8.27695 174.898 8.36109 174.673 8.50691C174.647 8.52091 174.62 8.53391 174.596 8.54991C174.269 8.77783 174.026 9.10713 173.905 9.48691L173.178 11.2219C173.147 11.2939 173.114 11.3649 173.085 11.4369L172.702 12.3649C172.656 12.4719 172.607 12.5769 172.563 12.6849L172.099 13.8199C172.073 13.8603 172.052 13.9045 172.039 13.9509L171.495 15.2569C171.47 15.3139 171.444 15.3699 171.421 15.4269L171.032 16.3669C170.949 16.5609 170.865 16.7539 170.784 16.9489L170.284 18.1489C170.248 18.2309 170.211 18.3119 170.177 18.3939L169.695 19.5549C169.487 20.0309 169.288 20.5109 169.095 20.9929C169.089 20.9986 169.084 21.005 169.08 21.0119C168.829 21.6119 168.579 22.2119 168.329 22.8119C168.312 22.8388 168.302 22.8699 168.3 22.9019H172.1C172.119 22.9008 172.138 22.9008 172.157 22.9019C172.241 22.9179 172.278 22.8819 172.305 22.8019C172.393 22.5399 172.492 22.2829 172.586 22.0219C172.686 21.7389 172.786 21.4559 172.886 21.1729C172.934 21.0469 172.986 20.9209 173.028 20.7929C173.03 20.7806 173.035 20.7688 173.042 20.7582C173.048 20.7477 173.057 20.7386 173.068 20.7315C173.078 20.7244 173.09 20.7195 173.102 20.717C173.114 20.7145 173.127 20.7145 173.139 20.7169C173.283 20.7169 173.427 20.7169 173.571 20.7169C173.947 20.7242 174.323 20.7242 174.699 20.7169C175.086 20.7242 175.472 20.7242 175.859 20.7169C176.259 20.7242 176.656 20.7242 177.051 20.7169C177.309 20.7169 177.568 20.7229 177.827 20.7169C177.896 20.7169 177.919 20.7399 177.932 20.8019C178.073 21.4869 178.217 22.1709 178.357 22.8559C178.365 22.8949 178.381 22.9049 178.416 22.9049H178.963H180.973H181.545C181.635 22.9049 181.725 22.9049 181.814 22.9049C181.872 22.9049 181.872 22.8869 181.862 22.8389" fill="#727174"/>
<path fill-rule="evenodd" clip-rule="evenodd" d="M151.494 11.355C151.571 11.174 151.65 10.993 151.726 10.811C151.85 10.511 151.971 10.217 152.094 9.91898C152.155 9.79542 152.208 9.66855 152.255 9.53898C152.3 9.44942 152.339 9.35647 152.37 9.26098L152.794 8.26798H152.733H148.879C148.857 8.26798 148.83 8.25598 148.813 8.28198L148.679 8.62498C148.594 8.83598 148.507 9.04698 148.424 9.25798C148.306 9.55798 148.19 9.85798 148.073 10.158C147.948 10.469 147.822 10.78 147.698 11.091C147.587 11.373 147.478 11.656 147.368 11.938C147.155 12.453 146.952 12.971 146.752 13.492C146.706 13.603 146.659 13.714 146.615 13.826L146.195 14.902L145.607 16.388C145.582 16.448 145.556 16.507 145.532 16.568L145.019 17.875L144.876 18.22C144.869 18.2 144.863 18.18 144.857 18.159C144.795 17.831 144.735 17.503 144.673 17.175C144.621 16.901 144.567 16.627 144.513 16.353C144.514 16.334 144.514 16.315 144.513 16.296L144.288 15.133C144.1 14.133 143.912 13.133 143.724 12.133C143.572 11.326 143.424 10.518 143.265 9.71398C143.193 9.30503 142.979 8.93481 142.66 8.6694C142.34 8.40399 141.937 8.26066 141.522 8.26498H135.159C135.135 8.26498 135.104 8.24998 135.085 8.27998C135.058 8.40198 135.031 8.52398 135 8.64498C135 8.67298 135 8.69298 135.031 8.70198L135.648 8.83998C135.654 8.84455 135.662 8.84825 135.669 8.85098C136.162 8.97298 136.65 9.11298 137.131 9.27498L137.58 9.42598C138.043 9.59621 138.492 9.80286 138.922 10.044C139.063 10.14 139.188 10.2567 139.294 10.39C139.443 10.6197 139.55 10.875 139.607 11.143C139.834 12.0143 140.061 12.8863 140.287 13.759L141.845 19.788C142.108 20.8053 142.371 21.8236 142.632 22.843C142.633 22.8533 142.636 22.8633 142.641 22.8724C142.646 22.8815 142.653 22.8894 142.661 22.8956C142.67 22.9018 142.679 22.9062 142.689 22.9085C142.699 22.9108 142.71 22.911 142.72 22.909C142.954 22.909 143.188 22.909 143.42 22.909H144.605H145.748H146.61C146.636 22.909 146.655 22.909 146.666 22.876C146.713 22.755 146.766 22.635 146.811 22.516C146.878 22.36 146.947 22.204 147.011 22.048C147.146 21.725 147.278 21.402 147.411 21.079C147.419 21.066 147.426 21.052 147.433 21.037L147.999 19.675C148.011 19.65 148.024 19.627 148.034 19.603L148.588 18.27C148.678 18.061 148.768 17.852 148.856 17.642C148.975 17.357 149.092 17.071 149.21 16.785C149.289 16.601 149.37 16.418 149.447 16.233C149.576 15.923 149.704 15.612 149.832 15.302C149.858 15.2659 149.874 15.224 149.88 15.18L149.945 15.033C149.956 15.012 149.967 14.991 149.978 14.968L150.567 13.549C150.7 13.235 150.835 12.922 150.967 12.607C151.141 12.191 151.313 11.775 151.486 11.359" fill="#727174"/>
<path fill-rule="evenodd" clip-rule="evenodd" d="M158.203 8.2652H154.85C154.724 8.2652 154.599 8.2652 154.475 8.2652C154.453 8.2652 154.416 8.2482 154.415 8.2952L154.366 8.5242C154.366 8.5402 154.355 8.5552 154.352 8.5712C154.241 9.08854 154.131 9.60587 154.021 10.1232C153.965 10.3852 153.912 10.6482 153.858 10.9112C153.855 10.9158 153.852 10.9209 153.851 10.9262C153.745 11.4222 153.639 11.9185 153.534 12.4152C153.498 12.553 153.469 12.6925 153.448 12.8332C153.402 12.9962 153.372 13.1622 153.339 13.3332L153.028 14.7882C152.997 14.9282 152.964 15.0682 152.934 15.2092L152.699 16.3242C152.692 16.3388 152.686 16.3538 152.682 16.3692C152.59 16.7985 152.499 17.2282 152.409 17.6582L152.192 18.6932C152.15 18.8812 152.107 19.0682 152.068 19.2572L151.768 20.6702C151.743 20.7842 151.716 20.8982 151.692 21.0112L151.298 22.8492C151.291 22.8832 151.279 22.9122 151.335 22.9122C151.773 22.9122 152.21 22.9122 152.648 22.9122H153.825H155.019C155.052 22.9122 155.065 22.9042 155.071 22.8702C155.083 22.8072 155.101 22.7462 155.117 22.6832C155.187 22.3632 155.259 22.0432 155.328 21.7222C155.369 21.5322 155.406 21.3412 155.445 21.1502C155.45 21.1385 155.454 21.1265 155.458 21.1142L155.768 19.6422L155.868 19.2012L155.955 18.7812C155.971 18.7182 155.988 18.6562 156.001 18.5922L156.281 17.2582C156.286 17.249 156.291 17.2393 156.294 17.2292C156.409 16.6959 156.523 16.1625 156.636 15.6292C156.688 15.3832 156.736 15.1362 156.788 14.8892C156.793 14.8797 156.798 14.8696 156.801 14.8592C156.944 14.1985 157.085 13.5379 157.225 12.8772C157.294 12.5502 157.361 12.2232 157.425 11.8972C157.429 11.8876 157.433 11.8775 157.436 11.8672C157.636 10.9299 157.836 9.99254 158.036 9.0552C158.092 8.7952 158.146 8.5352 158.203 8.2692" fill="#727174"/>
<path fill-rule="evenodd" clip-rule="evenodd" d="M169.114 8.62302C169.038 8.60102 168.965 8.57102 168.891 8.54602C168.495 8.41042 168.092 8.30052 167.682 8.21702C167.656 8.21102 167.63 8.20302 167.603 8.19702C167.017 8.07711 166.42 8.01083 165.822 7.99902L165.422 8.00502V7.99902C165.205 8.01102 164.988 8.01902 164.772 8.03602C164.601 8.04525 164.43 8.0663 164.262 8.09902C163.91 8.13993 163.562 8.21153 163.222 8.31302C162.849 8.40419 162.486 8.53354 162.139 8.69902C161.816 8.83743 161.509 9.0108 161.224 9.21602C160.903 9.42857 160.611 9.68279 160.357 9.97202C160.281 10.0456 160.212 10.1255 160.15 10.211C159.936 10.4772 159.758 10.7708 159.621 11.084C159.611 11.103 159.6 11.121 159.59 11.141C159.409 11.5535 159.296 11.9925 159.254 12.441C159.191 12.9827 159.26 13.5315 159.454 14.041C159.683 14.5932 160.036 15.0855 160.485 15.48C160.815 15.786 161.178 16.0543 161.568 16.28C161.583 16.2915 161.598 16.3022 161.614 16.312C161.92 16.496 162.237 16.661 162.556 16.82C162.7 16.892 162.844 16.961 162.989 17.032C163.141 17.119 163.295 17.205 163.447 17.293C163.693 17.4322 163.921 17.6 164.127 17.793C164.333 17.9786 164.469 18.2292 164.512 18.503C164.512 18.503 164.512 18.503 164.512 18.508V18.742C164.512 18.742 164.512 18.742 164.512 18.747C164.479 18.9975 164.369 19.2315 164.196 19.416C164.021 19.5817 163.818 19.7151 163.596 19.81C163.459 19.869 163.315 19.91 163.174 19.956C162.801 20.0405 162.419 20.0792 162.036 20.071L161.573 20.058C161.15 20.0313 160.73 19.9697 160.317 19.874C160.131 19.828 159.945 19.774 159.759 19.726C159.568 19.655 159.377 19.587 159.187 19.512C158.929 19.412 158.679 19.291 158.427 19.175C158.404 19.164 158.366 19.122 158.353 19.185C158.292 19.474 158.233 19.764 158.173 20.053C158.167 20.0653 158.163 20.078 158.159 20.091C158.003 20.8244 157.846 21.5577 157.688 22.291C157.684 22.2994 157.683 22.3084 157.683 22.3175C157.683 22.3266 157.685 22.3355 157.69 22.3436C157.694 22.3517 157.699 22.3588 157.707 22.3644C157.714 22.37 157.722 22.374 157.731 22.376C158.073 22.5222 158.427 22.6412 158.788 22.732C158.934 22.7762 159.082 22.8096 159.233 22.832C159.345 22.8636 159.46 22.888 159.575 22.905C159.86 22.9616 160.148 23.0033 160.438 23.03C160.465 23.044 160.497 23.03 160.524 23.044H160.584C160.584 23.044 160.591 23.044 160.594 23.044C160.616 23.0523 160.639 23.0554 160.662 23.053C160.662 23.053 160.668 23.053 160.672 23.053H160.749C160.782 23.069 160.819 23.053 160.849 23.065H160.925C160.938 23.0681 160.952 23.0681 160.965 23.065C160.983 23.0701 161.002 23.0728 161.021 23.073L161.781 23.11V23.124H162.108V23.11L162.141 23.105C162.203 23.1107 162.266 23.1107 162.329 23.105H162.354H162.392H162.549C162.595 23.1105 162.641 23.1065 162.685 23.093H162.691H162.739C163.072 23.0705 163.404 23.0287 163.733 22.968C163.916 22.9398 164.098 22.8994 164.276 22.847C164.646 22.7679 165.007 22.6516 165.354 22.5C165.602 22.3985 165.842 22.2788 166.072 22.142C166.102 22.147 166.121 22.123 166.144 22.111C166.445 21.9312 166.727 21.7218 166.987 21.486C166.994 21.4837 167.001 21.4803 167.008 21.476C167.321 21.1958 167.591 20.8706 167.808 20.511C167.819 20.496 167.831 20.481 167.84 20.465C168.308 19.6761 168.525 18.7633 168.462 17.848C168.419 17.0301 168.079 16.2559 167.507 15.67C166.907 15.0758 166.212 14.5858 165.451 14.22C164.951 13.946 164.451 13.698 163.964 13.399C163.943 13.383 163.922 13.366 163.9 13.351C163.69 13.2162 163.505 13.0472 163.351 12.851C163.275 12.756 163.221 12.6459 163.191 12.5281C163.161 12.4103 163.157 12.2876 163.179 12.168C163.214 12.0358 163.273 11.9109 163.352 11.799C163.588 11.5117 163.907 11.3045 164.266 11.206C164.512 11.1401 164.763 11.0962 165.017 11.075C165.039 11.0751 165.062 11.0734 165.084 11.07H165.102C165.124 11.0701 165.147 11.0684 165.169 11.065H165.409L165.974 11.085C166.002 11.098 166.034 11.085 166.062 11.097H166.139C166.166 11.111 166.198 11.097 166.225 11.109C166.321 11.1307 166.418 11.1431 166.516 11.146C166.527 11.1505 166.538 11.1542 166.55 11.157C166.864 11.2069 167.174 11.2774 167.478 11.368C167.808 11.466 168.132 11.586 168.446 11.727C168.47 11.738 168.505 11.775 168.518 11.714L168.69 10.885C168.696 10.8731 168.7 10.8607 168.704 10.848C168.761 10.5814 168.819 10.313 168.877 10.043C168.971 9.60169 169.066 9.16102 169.163 8.72102C169.174 8.66902 169.163 8.64302 169.11 8.62802" fill="#727174"/>
<path d="M8.878 5.9H1.909V22H5.635V17.561H8.878C13.179 17.561 15.87 15.33 15.87 11.742C15.87 8.131 13.179 5.9 8.878 5.9ZM8.671 14.525H5.635V8.936H8.671C10.948 8.936 12.098 9.971 12.098 11.742C12.098 13.49 10.948 14.525 8.671 14.525ZM23.1558 9.442C21.1778 9.442 19.1768 9.971 17.8198 10.937L19.1078 13.444C20.0048 12.731 21.3618 12.294 22.6728 12.294C24.6048 12.294 25.5248 13.191 25.5248 14.732H22.6728C18.9008 14.732 17.3598 16.25 17.3598 18.435C17.3598 20.574 19.0848 22.184 21.9828 22.184C23.7998 22.184 25.0878 21.586 25.7548 20.459V22H29.1128V14.939C29.1128 11.19 26.9278 9.442 23.1558 9.442ZM22.8798 19.769C21.6148 19.769 20.8558 19.171 20.8558 18.274C20.8558 17.446 21.3848 16.825 23.0638 16.825H25.5248V18.09C25.1108 19.217 24.0758 19.769 22.8798 19.769ZM40.9675 9.626L37.4715 18.021L33.9985 9.626H30.2955L35.6545 22.092L35.6085 22.207C35.1255 23.311 34.5735 23.748 33.5845 23.748C32.8715 23.748 32.1125 23.449 31.5605 22.966L30.2495 25.519C31.0545 26.232 32.4345 26.646 33.6995 26.646C35.9305 26.646 37.6325 25.749 38.8285 22.759L44.4175 9.626H40.9675ZM61.7286 9.442C59.8656 9.442 58.2556 10.201 57.2666 11.466C56.3926 10.109 54.9206 9.442 53.1956 9.442C51.6086 9.442 50.2286 9.994 49.3086 11.052V9.626H45.8816V22H49.4696V15.79C49.4696 13.582 50.5966 12.547 52.1836 12.547C53.6786 12.547 54.5296 13.467 54.5296 15.468V22H58.1176V15.79C58.1176 13.582 59.2446 12.547 60.8546 12.547C62.3036 12.547 63.2006 13.467 63.2006 15.468V22H66.7886V14.916C66.7886 11.144 64.6726 9.442 61.7286 9.442ZM82.2604 15.859C82.2604 11.88 79.4544 9.442 75.8204 9.442C72.0484 9.442 69.2194 12.11 69.2194 15.813C69.2194 19.493 72.0024 22.184 76.2804 22.184C78.5114 22.184 80.2364 21.494 81.3864 20.183L79.4774 18.113C78.6264 18.918 77.6834 19.309 76.3724 19.309C74.4864 19.309 73.1754 18.366 72.8304 16.825H82.1914C82.2144 16.526 82.2604 16.135 82.2604 15.859ZM75.8434 12.156C77.4534 12.156 78.6264 13.168 78.8794 14.732H72.7844C73.0374 13.145 74.2104 12.156 75.8434 12.156ZM92.1702 9.442C90.4912 9.442 89.0422 10.017 88.0762 11.075V9.626H84.6492V22H88.2372V15.882C88.2372 13.605 89.4792 12.547 91.2042 12.547C92.7912 12.547 93.7112 13.467 93.7112 15.468V22H97.2992V14.916C97.2992 11.144 95.0912 9.442 92.1702 9.442ZM107.567 18.872C107.176 19.171 106.647 19.332 106.118 19.332C105.152 19.332 104.577 18.757 104.577 17.699V12.662H107.659V9.902H104.577V6.889H100.989V9.902H99.0795V12.662H100.989V17.745C100.989 20.689 102.691 22.184 105.612 22.184C106.716 22.184 107.797 21.931 108.533 21.402L107.567 18.872ZM111.904 13.927C113.146 13.927 114.135 12.984 114.135 11.673C114.135 10.339 113.146 9.465 111.904 9.465C110.662 9.465 109.673 10.339 109.673 11.673C109.673 12.984 110.662 13.927 111.904 13.927ZM111.904 22.184C113.146 22.184 114.135 21.241 114.135 19.93C114.135 18.596 113.146 17.722 111.904 17.722C110.662 17.722 109.673 18.596 109.673 19.93C109.673 21.241 110.662 22.184 111.904 22.184Z" fill="#727174"/>
</svg>
