<svg width="24" height="24" viewBox="0 0 24 24" fill="none" xmlns="http://www.w3.org/2000/svg">
<path d="M20.7868 24C20.6868 24 20.5938 24 20.4978 23.987H20.4798C16.9238 23.5973 13.5075 22.3846 10.5018 20.445C7.71245 18.6698 5.34459 16.3067 3.56377 13.521C1.61307 10.5086 0.396776 7.08027 0.0127666 3.512V3.496C-0.026923 3.05231 0.0261711 2.60521 0.168671 2.18315C0.311171 1.76109 0.539957 1.37331 0.840475 1.04449C1.14099 0.715657 1.50666 0.452976 1.91422 0.273155C2.32178 0.0933345 2.7623 0.000309985 3.20777 0H6.54977C7.32237 0.00287933 8.06828 0.282943 8.65186 0.789263C9.23544 1.29558 9.61793 1.99453 9.72977 2.759V2.768C9.86024 3.75308 10.1018 4.72024 10.4498 5.651C10.6644 6.22521 10.7103 6.84883 10.582 7.44826C10.4537 8.0477 10.1566 8.59792 9.72577 9.034L8.87377 9.884C10.2041 11.9884 11.9883 13.7685 14.0958 15.094L14.9498 14.242C15.3867 13.8109 15.938 13.514 16.5384 13.3862C17.1387 13.2584 17.7631 13.3052 18.3378 13.521C19.2704 13.8681 20.2392 14.109 21.2258 14.239H21.2348C22.0123 14.348 22.7229 14.7382 23.2321 15.3358C23.7413 15.9335 24.0137 16.697 23.9978 17.482V20.782C23.9988 21.2043 23.9165 21.6227 23.7556 22.0131C23.5947 22.4035 23.3583 22.7584 23.0601 23.0573C22.7618 23.3563 22.4074 23.5934 22.0173 23.7552C21.6272 23.9169 21.2091 24.0001 20.7868 24ZM20.6868 22C20.8541 22.0143 21.0225 21.9936 21.1814 21.9393C21.3403 21.885 21.4862 21.7983 21.6097 21.6846C21.7333 21.5709 21.8319 21.4327 21.8992 21.2789C21.9665 21.1251 22.0011 20.9589 22.0008 20.791V17.471C22.0008 17.463 22.0008 17.4547 22.0008 17.446C22.0076 17.1502 21.9058 16.8621 21.7145 16.6363C21.5232 16.4105 21.2557 16.2628 20.9628 16.221C19.8279 16.0712 18.7136 15.7942 17.6408 15.395C17.4237 15.313 17.1878 15.2949 16.9608 15.3427C16.7338 15.3906 16.5252 15.5024 16.3598 15.665L14.9598 17.065C14.805 17.2195 14.6038 17.319 14.3871 17.3483C14.1703 17.3775 13.95 17.3349 13.7598 17.227C10.8352 15.567 8.41276 13.1487 6.74777 10.227C6.63983 10.0368 6.59723 9.81643 6.62649 9.59969C6.65575 9.38295 6.75526 9.18178 6.90977 9.027L8.30977 7.627C8.4712 7.46289 8.58237 7.25607 8.63021 7.03089C8.67804 6.80572 8.66054 6.57156 8.57977 6.356C8.17932 5.28476 7.90122 4.1717 7.75077 3.038C7.70812 2.7498 7.56342 2.4865 7.34301 2.29599C7.12259 2.10549 6.8411 2.00046 6.54977 2H3.20877C3.04143 1.99998 2.8759 2.03467 2.72265 2.10188C2.5694 2.16909 2.43176 2.26735 2.31842 2.39047C2.20508 2.51358 2.11851 2.65886 2.06418 2.81714C2.00985 2.97541 1.98894 3.14323 2.00277 3.31C2.35409 6.56277 3.46347 9.6878 5.24177 12.434V12.441C6.86568 14.9826 9.02582 17.1383 11.5708 18.757H11.5788C14.3216 20.5309 17.44 21.6413 20.6868 22Z" fill="#B92770"/>
</svg>
