<svg width="24" height="18" viewBox="0 0 24 18" fill="none" xmlns="http://www.w3.org/2000/svg">
<path d="M3.2 18.0017C2.38106 18.0287 1.58472 17.7304 0.985082 17.172C0.385441 16.6136 0.0312723 15.8405 0 15.0217L0 2.98069C0.0315299 2.16208 0.385811 1.38922 0.985424 0.831021C1.58504 0.272819 2.38122 -0.0253433 3.2 0.00169018H20.8C21.6188 -0.0253433 22.415 0.272819 23.0146 0.831021C23.6142 1.38922 23.9685 2.16208 24 2.98069V15.0217C23.9687 15.8405 23.6146 16.6136 23.0149 17.172C22.4153 17.7304 21.6189 18.0287 20.8 18.0017H3.2ZM2 15.0217C2.02748 15.3158 2.16784 15.5878 2.39159 15.7806C2.61534 15.9734 2.90509 16.072 3.2 16.0557H20.8C21.0949 16.072 21.3847 15.9734 21.6084 15.7806C21.8322 15.5878 21.9725 15.3158 22 15.0217V6.83069L12.606 13.7967C12.4303 13.9257 12.218 13.9953 12 13.9953C11.782 13.9953 11.5697 13.9257 11.394 13.7967L2 6.83069V15.0217ZM12 11.8017L22 4.38369V2.98369C21.9723 2.68979 21.8318 2.41805 21.6081 2.22546C21.3844 2.03287 21.0948 1.93439 20.8 1.95069H3.2C2.90572 1.93434 2.61652 2.03241 2.39287 2.22437C2.16922 2.41634 2.02845 2.68733 2 2.98069V4.38069L12 11.8017Z" fill="#B92770"/>
</svg>
