<svg width="62" height="62" viewBox="0 0 62 62" fill="none" xmlns="http://www.w3.org/2000/svg">
<path d="M62 0H0V62H62V0Z" fill="#B92770"/>
<path d="M27.0122 56.5657C26.8054 56.4559 26.6367 56.286 26.5283 56.0784C26.42 55.8708 26.3771 55.6351 26.4053 55.4026C26.4133 53.8026 26.4053 52.2029 26.4053 50.5969V49.9968C23.5174 49.4745 20.7448 48.4446 18.2162 46.9548C15.6568 45.4908 13.4646 43.4629 11.8059 41.0252C10.1472 38.5874 9.06559 35.8036 8.64319 32.8855C8.39219 31.3975 8.35429 29.8725 8.24329 28.3635C8.21414 28.1199 8.27109 27.8738 8.40442 27.6677C8.53776 27.4617 8.73904 27.3088 8.97327 27.2356C9.19317 27.1521 9.43475 27.1454 9.65894 27.2166C9.88313 27.2877 10.0768 27.4327 10.2083 27.6277C10.3295 27.8544 10.4168 28.0978 10.4673 28.3499C11.2727 32.0088 13.4625 35.2141 16.5783 37.2947C19.0445 38.8155 21.9216 39.5343 24.8132 39.3518C25.3252 39.3368 25.8362 39.3055 26.4022 39.2805V38.6609C26.4022 37.0259 26.4022 35.3887 26.4022 33.7527C26.3727 33.5207 26.4142 33.2852 26.5214 33.0774C26.6285 32.8696 26.7961 32.6991 27.0022 32.5886C27.2126 32.4863 27.4488 32.4494 27.6804 32.4822C27.9121 32.515 28.1286 32.616 28.3023 32.7727C33.3023 36.3447 38.3053 39.9131 43.3113 43.4778C43.5008 43.5692 43.6608 43.7118 43.773 43.8899C43.8851 44.068 43.9448 44.2742 43.9453 44.4846C43.9458 44.6951 43.8871 44.9012 43.7759 45.0798C43.6646 45.2585 43.5054 45.4025 43.3163 45.4949C38.3163 49.1249 33.3122 52.7517 28.3042 56.3757C28.0735 56.5652 27.7883 56.6758 27.4902 56.6917C27.3231 56.6884 27.1592 56.6452 27.0122 56.5657ZM11.8843 36.4807C13.1627 39.7446 15.4244 42.5304 18.3562 44.4519C21.0538 46.2582 24.1196 47.4413 27.3312 47.9158C28.3312 48.0678 28.5862 48.3666 28.5892 49.3806C28.5892 50.1556 28.5892 50.9308 28.5892 51.7068V53.4675L40.9773 44.4929L28.5912 35.6609C28.5912 37.1679 28.5912 38.5275 28.5912 39.8855C28.5912 40.9305 28.2912 41.3018 27.2362 41.3538C25.694 41.4802 24.1455 41.5137 22.5992 41.4539C18.7697 41.2582 15.1675 39.5767 12.5582 36.7669C12.2942 36.4879 12.0402 36.1988 11.7822 35.9148C11.7675 36.108 11.8022 36.3018 11.8832 36.4778L11.8843 36.4807ZM44.9232 43.7307C44.813 43.6163 44.7277 43.4803 44.6726 43.3313C44.6176 43.1823 44.594 43.0236 44.6034 42.865C44.6128 42.7064 44.6549 42.5514 44.7272 42.4099C44.7994 42.2684 44.9002 42.1433 45.0232 42.0427C45.7992 41.1787 46.5552 40.2976 47.3232 39.4255L47.2233 39.2595H44.8383C43.6623 39.2595 42.4883 39.2498 41.3123 39.2678C41.0998 39.2734 40.8935 39.3403 40.7183 39.4607C40.5421 39.6125 40.3217 39.7033 40.0897 39.7195C39.8578 39.7357 39.6268 39.6763 39.4313 39.5505C39.229 39.4307 39.0732 39.2459 38.9895 39.0261C38.9058 38.8064 38.8989 38.5647 38.9702 38.3406C39.2622 37.0686 39.6182 35.8068 39.8342 34.5208C40.1112 32.8628 40.2782 31.1867 40.5012 29.4607H31.8123C31.8123 30.2067 31.8123 30.9607 31.8123 31.7097C31.8123 31.9347 31.8232 32.1586 31.8052 32.3816C31.7947 32.6676 31.6717 32.9378 31.4629 33.1336C31.2541 33.3293 30.9763 33.4346 30.6902 33.4265C30.4126 33.4189 30.1491 33.3023 29.9569 33.1018C29.7647 32.9014 29.6592 32.6334 29.6632 32.3557C29.6432 31.5807 29.6563 30.8046 29.6563 30.0296V29.4475H21.0933C21.1313 30.0595 21.1242 30.6766 21.2162 31.2766C21.5062 33.1446 21.8213 35.0098 22.1493 36.8718C22.2823 37.6238 22.0212 38.1965 21.4092 38.3425C20.7422 38.5015 20.2402 38.1428 20.0492 37.3748C19.4463 34.8987 19.0763 32.3719 18.9442 29.8269C18.9382 29.7099 18.9233 29.5937 18.9063 29.4197H18.3342C16.3582 29.4197 14.3832 29.4197 12.4072 29.4197C12.1489 29.449 11.8884 29.388 11.6697 29.2473C11.451 29.1066 11.2877 28.895 11.2073 28.6477C11.1559 28.4875 11.1426 28.3174 11.1685 28.1511C11.1943 27.9849 11.2585 27.8273 11.3561 27.6902C11.4536 27.5531 11.5819 27.4404 11.7305 27.3616C11.8791 27.2827 12.0441 27.2395 12.2123 27.2356C12.7373 27.1976 13.2673 27.2229 13.7953 27.2229H18.7653C19.0133 24.5999 19.2552 22.0229 19.5012 19.4109H18.9012C16.7723 19.4109 14.6432 19.4217 12.5132 19.3987C12.3574 19.3773 12.1993 19.4158 12.0706 19.5061C11.9418 19.5964 11.8521 19.7317 11.8192 19.8855C11.1857 21.5412 10.7582 23.2685 10.5463 25.0286C10.5431 25.2974 10.4437 25.5563 10.2661 25.7581C10.0885 25.9599 9.84448 26.0914 9.57825 26.1287C9.34707 26.1622 9.11141 26.1149 8.91102 25.9949C8.71062 25.8748 8.55779 25.6891 8.47828 25.4695C8.39961 25.1543 8.38458 24.8267 8.43421 24.5056C8.67434 22.4697 9.20928 20.4798 10.0222 18.5979C13.2792 11.2369 18.8222 6.67772 26.6332 5.10572C31.4155 4.19763 36.3638 4.88384 40.7184 7.05934C45.073 9.23484 48.5934 12.7794 50.7393 17.1487C52.417 20.4089 53.2742 24.0292 53.2366 27.6956C53.1989 31.3619 52.2675 34.9637 50.5232 38.1887C49.4896 40.1876 48.146 42.0101 46.5422 43.5886C46.4252 43.7194 46.2833 43.8256 46.1249 43.9011C45.9664 43.9767 45.7946 44.02 45.6193 44.0286C45.3568 44.0246 45.1074 43.9177 44.9232 43.7307ZM48.3232 37.0847C48.6462 37.0847 48.7643 36.9176 48.8843 36.6716C49.7509 34.9137 50.3674 33.0432 50.7162 31.1145C50.8162 30.5695 50.8722 30.0146 50.9542 29.4216C48.2072 29.4216 45.5542 29.4218 42.9032 29.4158C42.5782 29.4158 42.5653 29.5956 42.5503 29.8416C42.5063 30.5616 42.4812 31.2868 42.3832 31.9998C42.1522 33.6648 41.8832 35.3247 41.6152 37.0447C41.6898 37.0597 41.7653 37.0692 41.8412 37.0735H44.9242C46.0575 37.0762 47.1899 37.0801 48.3232 37.0847ZM42.2842 19.4109C42.1897 19.4138 42.0956 19.4224 42.0022 19.4368C42.2462 22.0368 42.4912 24.6106 42.7352 27.1946H51.0002C51.0162 27.1231 51.0272 27.0508 51.0332 26.9778C50.9897 24.4789 50.4771 22.0106 49.5222 19.7009C49.4665 19.6184 49.3922 19.55 49.3054 19.5012C49.2186 19.4524 49.1217 19.4244 49.0222 19.4197C47.7982 19.4097 46.5742 19.4055 45.3502 19.4075L42.2842 19.4109ZM21.0692 27.1878H29.6172V19.4417H21.8252C21.3062 21.9909 21.0532 24.5872 21.0702 27.1887L21.0692 27.1878ZM31.8552 27.1819H40.4392C40.4512 24.5778 40.1928 21.9792 39.6682 19.4285H31.8552V27.1819ZM37.8073 9.02076C39.3879 11.3386 40.5427 13.9197 41.2173 16.6428C41.2259 16.7367 41.254 16.8277 41.2999 16.9099C41.3459 16.9922 41.4086 17.0638 41.484 17.1204C41.5594 17.1769 41.6458 17.217 41.7377 17.238C41.8295 17.2591 41.9247 17.2609 42.0172 17.2429C43.9062 17.2129 45.7983 17.2307 47.6873 17.2307H48.3612C45.8401 12.8144 41.7769 9.48466 36.9513 7.88063C37.2993 8.33963 37.5633 8.67776 37.8073 9.02076ZM19.5162 17.2395C19.6049 17.2557 19.6959 17.2536 19.7836 17.2327C19.8712 17.2118 19.9535 17.1729 20.0253 17.1184C20.097 17.064 20.1567 16.9951 20.2004 16.9163C20.2442 16.8375 20.2709 16.7506 20.2792 16.6609C21.0358 13.5463 22.4404 10.6259 24.4013 8.09059C24.4243 8.06159 24.4192 8.01073 24.4292 7.95973C20.6352 8.72273 14.3782 13.8598 13.1842 17.2278C14.3432 17.2278 15.4842 17.2278 16.6252 17.2278C17.5902 17.2228 18.5542 17.2265 19.5162 17.2395ZM29.1043 17.2395C29.5683 17.2465 29.6673 17.0956 29.6653 16.6546C29.6473 13.6236 29.6552 10.5947 29.6542 7.56568C29.6542 7.41268 29.6412 7.26553 29.6312 7.03053C29.3372 7.13053 29.0783 7.19745 28.8373 7.30445C27.6703 7.85011 26.6582 8.67904 25.8932 9.71559C24.4628 11.6093 23.3865 13.7461 22.7162 16.0227C22.5952 16.3937 22.4912 16.7675 22.3622 17.1985C22.6002 17.2135 22.7623 17.2297 22.9263 17.2297H24.7433H26.2603C27.2093 17.2237 28.1562 17.2256 29.1052 17.2376L29.1043 17.2395ZM31.8462 17.1956H39.1083C39.0811 17.0336 39.0433 16.8736 38.9952 16.7166C38.4782 15.3536 38.0242 13.9599 37.4192 12.6389C36.6519 10.8488 35.4569 9.27401 33.9392 8.05348C33.3331 7.55327 32.615 7.2073 31.8462 7.04469V17.1956Z" fill="white"/>
</svg>
