<svg width="34" height="33" viewBox="0 0 34 33" fill="none" xmlns="http://www.w3.org/2000/svg">
<path d="M25.4741 30.1318C25.4737 29.5641 25.6397 29.009 25.9512 28.5367C26.2627 28.0644 26.7057 27.6963 27.224 27.4787C27.7424 27.2612 28.3129 27.204 28.8634 27.3145C29.4138 27.4251 29.9195 27.6983 30.3165 28.0996C30.7135 28.5009 30.9839 29.0123 31.0935 29.5691C31.2031 30.1259 31.1471 30.7031 30.9324 31.2277C30.7177 31.7523 30.3541 32.2007 29.8875 32.5162C29.4209 32.8316 28.8723 33 28.3111 33C27.5595 32.9984 26.8391 32.6958 26.3075 32.1583C25.7758 31.6208 25.4762 30.8922 25.4741 30.1318ZM9.87737 30.1318C9.87737 29.5646 10.0436 29.0101 10.3552 28.5384C10.6667 28.0667 11.1095 27.6991 11.6275 27.482C12.1455 27.2649 12.7156 27.2081 13.2655 27.3188C13.8154 27.4295 14.3206 27.7026 14.7171 28.1038C15.1136 28.5049 15.3836 29.0159 15.493 29.5723C15.6024 30.1287 15.5462 30.7054 15.3316 31.2294C15.1171 31.7535 14.7537 32.2015 14.2875 32.5166C13.8212 32.8318 13.2731 33 12.7124 33C11.9605 32.9995 11.2395 32.6972 10.7076 32.1595C10.1757 31.6218 9.87843 30.8926 9.87737 30.1318ZM9.44891 20.9278L7.07837 8.95086C7.07837 8.91238 7.06236 8.87187 7.05635 8.83135L5.87508 2.86616H1.36425C0.997786 2.85222 0.65092 2.69514 0.396523 2.42791C0.142127 2.16068 0 1.80411 0 1.4331C0 1.06209 0.142127 0.705516 0.396523 0.438288C0.65092 0.17106 0.997786 0.0139761 1.36425 3.51175e-05H7.03633C7.36585 -0.00229538 7.68592 0.111433 7.94163 0.321718C8.19734 0.532003 8.37277 0.825742 8.43783 1.15256L9.6291 7.17244H32.5737C32.7831 7.17143 32.9901 7.21729 33.1799 7.30673C33.3697 7.39618 33.5376 7.52699 33.6715 7.68981C33.8055 7.85262 33.9022 8.04339 33.9547 8.24845C34.0072 8.45352 34.0142 8.66779 33.9752 8.87592L31.7047 20.9137C31.7056 20.9177 31.7056 20.9218 31.7047 20.9258C31.514 21.9026 30.9939 22.7821 30.2332 23.4139C29.4725 24.0457 28.5185 24.3905 27.5343 24.3895H13.6174C12.6337 24.3898 11.6803 24.045 10.9198 23.4137C10.1593 22.7825 9.64074 21.9039 9.44891 20.9278ZM12.2319 20.3668C12.2962 20.6975 12.4735 20.9947 12.7326 21.2066C12.9918 21.4184 13.3163 21.5312 13.6494 21.5254H27.5163C27.8438 21.5253 28.1612 21.4104 28.4146 21.2003C28.6679 20.9902 28.8414 20.6978 28.9057 20.3728L30.8518 10.0426H10.1877L12.2319 20.3668Z" fill="black"/>
</svg>
