<svg width="80" height="11" viewBox="0 0 80 11" fill="none" xmlns="http://www.w3.org/2000/svg">
<path d="M4.82551 0.56411C4.9074 0.395039 5.03525 0.252452 5.19442 0.152684C5.3536 0.0529152 5.53765 0 5.72551 0C5.91337 0 6.09743 0.0529152 6.2566 0.152684C6.41577 0.252452 6.54363 0.395039 6.62551 0.56411L7.58751 2.56411C7.66014 2.71508 7.76953 2.84539 7.90565 2.94306C8.04176 3.04074 8.20023 3.10265 8.36651 3.12311L10.5665 3.39311C10.7562 3.41633 10.9354 3.49343 11.0826 3.6153C11.2299 3.73717 11.3391 3.89869 11.3974 4.08073C11.4557 4.26277 11.4606 4.45771 11.4115 4.64245C11.3625 4.82719 11.2615 4.994 11.1205 5.12311L9.53751 6.57611C9.41106 6.69189 9.3165 6.83824 9.26291 7.0011C9.20933 7.16396 9.19851 7.33786 9.23151 7.50611L9.64551 9.61711C9.68217 9.80305 9.66523 9.99559 9.59667 10.1723C9.52811 10.349 9.41075 10.5025 9.25827 10.6151C9.10579 10.7276 8.92447 10.7945 8.73542 10.808C8.54638 10.8215 8.3574 10.7809 8.19051 10.6911L6.19951 9.62111C6.05395 9.54286 5.89127 9.5019 5.72601 9.5019C5.56075 9.5019 5.39807 9.54286 5.25251 9.62111L3.26051 10.6911C3.09362 10.7809 2.90464 10.8215 2.7156 10.808C2.52656 10.7945 2.34523 10.7276 2.19275 10.6151C2.04027 10.5025 1.92291 10.349 1.85435 10.1723C1.78579 9.99559 1.76886 9.80305 1.80551 9.61711L2.21951 7.50611C2.25251 7.33786 2.2417 7.16396 2.18811 7.0011C2.13452 6.83824 2.03996 6.69189 1.91351 6.57611L0.325511 5.12211C0.184246 4.99305 0.0829729 4.82617 0.0337104 4.64128C-0.0155521 4.45639 -0.0107356 4.26125 0.0475886 4.07901C0.105913 3.89677 0.215296 3.73509 0.362756 3.61316C0.510216 3.49123 0.689563 3.41416 0.879511 3.39111L3.07951 3.12111C3.24579 3.10065 3.40426 3.03874 3.54038 2.94106C3.67649 2.84339 3.78588 2.71308 3.85851 2.56211L4.82551 0.56411Z" fill="#F5B423"/>
<path d="M21.8255 0.56411C21.9074 0.395039 22.0352 0.252452 22.1944 0.152684C22.3536 0.0529152 22.5377 0 22.7255 0C22.9134 0 23.0974 0.0529152 23.2566 0.152684C23.4158 0.252452 23.5436 0.395039 23.6255 0.56411L24.5875 2.56411C24.6601 2.71508 24.7695 2.84539 24.9056 2.94306C25.0418 3.04074 25.2002 3.10265 25.3665 3.12311L27.5665 3.39311C27.7562 3.41633 27.9354 3.49343 28.0826 3.6153C28.2299 3.73717 28.3391 3.89869 28.3974 4.08073C28.4557 4.26277 28.4606 4.45771 28.4115 4.64245C28.3625 4.82719 28.2615 4.994 28.1205 5.12311L26.5375 6.57611C26.4111 6.69189 26.3165 6.83824 26.2629 7.0011C26.2093 7.16396 26.1985 7.33786 26.2315 7.50611L26.6455 9.61711C26.6822 9.80305 26.6652 9.99559 26.5967 10.1723C26.5281 10.349 26.4108 10.5025 26.2583 10.6151C26.1058 10.7276 25.9245 10.7945 25.7354 10.808C25.5464 10.8215 25.3574 10.7809 25.1905 10.6911L23.1995 9.62111C23.054 9.54286 22.8913 9.5019 22.726 9.5019C22.5608 9.5019 22.3981 9.54286 22.2525 9.62111L20.2605 10.6911C20.0936 10.7809 19.9046 10.8215 19.7156 10.808C19.5266 10.7945 19.3452 10.7276 19.1928 10.6151C19.0403 10.5025 18.9229 10.349 18.8544 10.1723C18.7858 9.99559 18.7689 9.80305 18.8055 9.61711L19.2195 7.50611C19.2525 7.33786 19.2417 7.16396 19.1881 7.0011C19.1345 6.83824 19.04 6.69189 18.9135 6.57611L17.3255 5.12211C17.1842 4.99305 17.083 4.82617 17.0337 4.64128C16.9844 4.45639 16.9893 4.26125 17.0476 4.07901C17.1059 3.89677 17.2153 3.73509 17.3628 3.61316C17.5102 3.49123 17.6896 3.41416 17.8795 3.39111L20.0795 3.12111C20.2458 3.10065 20.4043 3.03874 20.5404 2.94106C20.6765 2.84339 20.7859 2.71308 20.8585 2.56211L21.8255 0.56411Z" fill="#F5B423"/>
<path d="M38.8255 0.56411C38.9074 0.395039 39.0352 0.252452 39.1944 0.152684C39.3536 0.0529152 39.5377 0 39.7255 0C39.9134 0 40.0974 0.0529152 40.2566 0.152684C40.4158 0.252452 40.5436 0.395039 40.6255 0.56411L41.5875 2.56411C41.6601 2.71508 41.7695 2.84539 41.9056 2.94306C42.0418 3.04074 42.2002 3.10265 42.3665 3.12311L44.5665 3.39311C44.7562 3.41633 44.9354 3.49343 45.0826 3.6153C45.2299 3.73717 45.3391 3.89869 45.3974 4.08073C45.4557 4.26277 45.4606 4.45771 45.4115 4.64245C45.3625 4.82719 45.2615 4.994 45.1205 5.12311L43.5375 6.57611C43.4111 6.69189 43.3165 6.83824 43.2629 7.0011C43.2093 7.16396 43.1985 7.33786 43.2315 7.50611L43.6455 9.61711C43.6822 9.80305 43.6652 9.99559 43.5967 10.1723C43.5281 10.349 43.4108 10.5025 43.2583 10.6151C43.1058 10.7276 42.9245 10.7945 42.7354 10.808C42.5464 10.8215 42.3574 10.7809 42.1905 10.6911L40.1995 9.62111C40.054 9.54286 39.8913 9.5019 39.726 9.5019C39.5608 9.5019 39.3981 9.54286 39.2525 9.62111L37.2605 10.6911C37.0936 10.7809 36.9046 10.8215 36.7156 10.808C36.5266 10.7945 36.3452 10.7276 36.1928 10.6151C36.0403 10.5025 35.9229 10.349 35.8544 10.1723C35.7858 9.99559 35.7689 9.80305 35.8055 9.61711L36.2195 7.50611C36.2525 7.33786 36.2417 7.16396 36.1881 7.0011C36.1345 6.83824 36.04 6.69189 35.9135 6.57611L34.3255 5.12211C34.1842 4.99305 34.083 4.82617 34.0337 4.64128C33.9844 4.45639 33.9893 4.26125 34.0476 4.07901C34.1059 3.89677 34.2153 3.73509 34.3628 3.61316C34.5102 3.49123 34.6896 3.41416 34.8795 3.39111L37.0795 3.12111C37.2458 3.10065 37.4043 3.03874 37.5404 2.94106C37.6765 2.84339 37.7859 2.71308 37.8585 2.56211L38.8255 0.56411Z" fill="#F5B423"/>
<path d="M55.8255 0.56411C55.9074 0.395039 56.0352 0.252452 56.1944 0.152684C56.3536 0.0529152 56.5377 0 56.7255 0C56.9134 0 57.0974 0.0529152 57.2566 0.152684C57.4158 0.252452 57.5436 0.395039 57.6255 0.56411L58.5875 2.56411C58.6601 2.71508 58.7695 2.84539 58.9056 2.94306C59.0418 3.04074 59.2002 3.10265 59.3665 3.12311L61.5665 3.39311C61.7562 3.41633 61.9354 3.49343 62.0826 3.6153C62.2299 3.73717 62.3391 3.89869 62.3974 4.08073C62.4557 4.26277 62.4606 4.45771 62.4115 4.64245C62.3625 4.82719 62.2615 4.994 62.1205 5.12311L60.5375 6.57611C60.4111 6.69189 60.3165 6.83824 60.2629 7.0011C60.2093 7.16396 60.1985 7.33786 60.2315 7.50611L60.6455 9.61711C60.6822 9.80305 60.6652 9.99559 60.5967 10.1723C60.5281 10.349 60.4108 10.5025 60.2583 10.6151C60.1058 10.7276 59.9245 10.7945 59.7354 10.808C59.5464 10.8215 59.3574 10.7809 59.1905 10.6911L57.1995 9.62111C57.054 9.54286 56.8913 9.5019 56.726 9.5019C56.5608 9.5019 56.3981 9.54286 56.2525 9.62111L54.2605 10.6911C54.0936 10.7809 53.9046 10.8215 53.7156 10.808C53.5266 10.7945 53.3452 10.7276 53.1928 10.6151C53.0403 10.5025 52.9229 10.349 52.8544 10.1723C52.7858 9.99559 52.7689 9.80305 52.8055 9.61711L53.2195 7.50611C53.2525 7.33786 53.2417 7.16396 53.1881 7.0011C53.1345 6.83824 53.04 6.69189 52.9135 6.57611L51.3255 5.12211C51.1842 4.99305 51.083 4.82617 51.0337 4.64128C50.9844 4.45639 50.9893 4.26125 51.0476 4.07901C51.1059 3.89677 51.2153 3.73509 51.3628 3.61316C51.5102 3.49123 51.6896 3.41416 51.8795 3.39111L54.0795 3.12111C54.2458 3.10065 54.4043 3.03874 54.5404 2.94106C54.6765 2.84339 54.7859 2.71308 54.8585 2.56211L55.8255 0.56411Z" fill="#F5B423"/>
<path d="M72.8255 0.56411C72.9074 0.395039 73.0352 0.252452 73.1944 0.152684C73.3536 0.0529152 73.5377 0 73.7255 0C73.9134 0 74.0974 0.0529152 74.2566 0.152684C74.4158 0.252452 74.5436 0.395039 74.6255 0.56411L75.5875 2.56411C75.6601 2.71508 75.7695 2.84539 75.9056 2.94306C76.0418 3.04074 76.2002 3.10265 76.3665 3.12311L78.5665 3.39311C78.7562 3.41633 78.9354 3.49343 79.0826 3.6153C79.2299 3.73717 79.3391 3.89869 79.3974 4.08073C79.4557 4.26277 79.4606 4.45771 79.4115 4.64245C79.3625 4.82719 79.2615 4.994 79.1205 5.12311L77.5375 6.57611C77.4111 6.69189 77.3165 6.83824 77.2629 7.0011C77.2093 7.16396 77.1985 7.33786 77.2315 7.50611L77.6455 9.61711C77.6822 9.80305 77.6652 9.99559 77.5967 10.1723C77.5281 10.349 77.4108 10.5025 77.2583 10.6151C77.1058 10.7276 76.9245 10.7945 76.7354 10.808C76.5464 10.8215 76.3574 10.7809 76.1905 10.6911L74.1995 9.62111C74.054 9.54286 73.8913 9.5019 73.726 9.5019C73.5608 9.5019 73.3981 9.54286 73.2525 9.62111L71.2605 10.6911C71.0936 10.7809 70.9046 10.8215 70.7156 10.808C70.5266 10.7945 70.3452 10.7276 70.1928 10.6151C70.0403 10.5025 69.9229 10.349 69.8544 10.1723C69.7858 9.99559 69.7689 9.80305 69.8055 9.61711L70.2195 7.50611C70.2525 7.33786 70.2417 7.16396 70.1881 7.0011C70.1345 6.83824 70.04 6.69189 69.9135 6.57611L68.3255 5.12211C68.1842 4.99305 68.083 4.82617 68.0337 4.64128C67.9844 4.45639 67.9893 4.26125 68.0476 4.07901C68.1059 3.89677 68.2153 3.73509 68.3628 3.61316C68.5102 3.49123 68.6896 3.41416 68.8795 3.39111L71.0795 3.12111C71.2458 3.10065 71.4043 3.03874 71.5404 2.94106C71.6765 2.84339 71.7859 2.71308 71.8585 2.56211L72.8255 0.56411Z" fill="#F5B423"/>
</svg>
