<svg width="25" height="20" viewBox="0 0 25 20" fill="none" xmlns="http://www.w3.org/2000/svg">
<path d="M25 2.40008C24.0651 2.81761 23.071 3.08746 22.0533 3.2C23.1072 2.56172 23.8994 1.56927 24.2883 0.400289C23.284 0.989603 22.1831 1.39587 21.0367 1.60017C20.3389 0.863533 19.4382 0.35065 18.4485 0.126541C17.4589 -0.0975676 16.4251 -0.0228075 15.478 0.341343C14.5309 0.705493 13.7133 1.34263 13.1289 2.17198C12.5444 3.00133 12.2194 3.98554 12.195 4.99981C12.1783 5.40246 12.2125 5.8056 12.2967 6.19969C10.2612 6.11018 8.26765 5.59184 6.44643 4.6786C4.62522 3.76536 3.01743 2.47781 1.72833 0.900238C1.28008 1.69477 1.03559 2.58793 1.01667 3.49997C1.01487 4.32981 1.21792 5.14726 1.60779 5.87983C1.99766 6.6124 2.56231 7.23745 3.25167 7.69954C2.467 7.61971 1.70668 7.3816 1.01667 6.99961V7.0996C1.02909 8.28527 1.45049 9.43031 2.20966 10.3412C2.96883 11.2521 4.01922 11.8731 5.18333 12.0991C4.75154 12.2145 4.30827 12.2815 3.86167 12.2991C3.51985 12.3108 3.17798 12.2772 2.845 12.1991C3.16752 13.2133 3.80398 14.0988 4.66253 14.7278C5.52108 15.3568 6.55731 15.6968 7.62167 15.6987C5.80397 17.1457 3.54329 17.9225 1.22 17.8985C0.810778 17.915 0.401074 17.8814 0 17.7985C2.35502 19.2475 5.06821 20.0094 7.83333 19.9983C9.74355 20.0279 11.6406 19.6774 13.4141 18.9672C15.1876 18.257 16.8022 17.2012 18.1639 15.8614C19.5256 14.5215 20.6072 12.9243 21.3459 11.1626C22.0846 9.40097 22.4656 7.51 22.4667 5.59975V4.89983C23.4766 4.25279 24.3396 3.40123 25 2.40008Z" fill="black"/>
</svg>
