<svg width="30" height="33" viewBox="0 0 30 33" fill="none" xmlns="http://www.w3.org/2000/svg">
<path d="M26.666 31.3505V28.0495C26.666 26.7366 26.1393 25.4778 25.2017 24.5494C24.264 23.621 22.9921 23.099 21.666 23.099H8.33398C7.0079 23.099 5.73602 23.621 4.79834 24.5494C3.86066 25.4778 3.33398 26.7366 3.33398 28.0495V31.3505C3.33398 31.788 3.15863 32.2072 2.84619 32.5166C2.53376 32.8259 2.10982 33 1.66797 33C1.44902 33.0003 1.23214 32.958 1.02979 32.8753C0.827426 32.7925 0.643684 32.6707 0.48877 32.5175C0.333855 32.3643 0.210802 32.1821 0.126953 31.9819C0.0431038 31.7816 -1.57771e-07 31.5673 0 31.3505V28.0495C0.00264741 25.8621 0.881436 23.7648 2.44385 22.2182C4.00626 20.6716 6.12467 19.8021 8.33398 19.8H21.666C23.8753 19.8021 25.9937 20.6716 27.5562 22.2182C29.1186 23.7648 29.9974 25.8621 30 28.0495V31.3505C30 31.5673 29.9569 31.7816 29.873 31.9819C29.7892 32.1821 29.6661 32.3643 29.5112 32.5175C29.3563 32.6707 29.1726 32.7925 28.9702 32.8753C28.7679 32.958 28.551 33.0003 28.332 33C27.8902 33 27.4662 32.8259 27.1538 32.5166C26.8414 32.2072 26.666 31.788 26.666 31.3505ZM6.66602 8.24952C6.66866 6.06174 7.548 3.96482 9.11084 2.4182C10.6737 0.871571 12.7923 0.001572 15.002 0C17.2113 0.0026212 19.3291 0.87319 20.8911 2.42013C22.4531 3.96707 23.3319 6.06401 23.334 8.25145C23.3319 10.4387 22.4532 12.5361 20.8911 14.0828C19.329 15.6294 17.2111 16.4989 15.002 16.501C12.7928 16.4989 10.6749 15.6294 9.11279 14.0828C7.5507 12.5361 6.67204 10.4387 6.66992 8.25145L6.66602 8.24952ZM9.99805 8.24952C9.99805 9.56247 10.5247 10.8213 11.4624 11.7497C12.4001 12.6781 13.672 13.2 14.998 13.2C16.3241 13.2 17.596 12.6781 18.5337 11.7497C19.4714 10.8213 19.998 9.56247 19.998 8.24952C19.998 6.93657 19.4714 5.67777 18.5337 4.74937C17.596 3.82097 16.3241 3.29903 14.998 3.29903C13.6723 3.30008 12.4012 3.82259 11.4644 4.7513C10.5275 5.68001 10.0014 6.93884 10.002 8.25145L9.99805 8.24952Z" fill="black"/>
</svg>
